%TF.GenerationSoftware,KiCad,Pcbnew,(6.0.2)*%
%TF.CreationDate,2022-10-05T14:19:39-05:00*%
%TF.ProjectId,OneChipTerminal,4f6e6543-6869-4705-9465-726d696e616c,rev?*%
%TF.SameCoordinates,Original*%
%TF.FileFunction,Legend,Top*%
%TF.FilePolarity,Positive*%
%FSLAX46Y46*%
G04 Gerber Fmt 4.6, Leading zero omitted, Abs format (unit mm)*
G04 Created by KiCad (PCBNEW (6.0.2)) date 2022-10-05 14:19:39*
%MOMM*%
%LPD*%
G01*
G04 APERTURE LIST*
%ADD10C,0.150000*%
%ADD11C,0.120000*%
%ADD12C,0.200000*%
G04 APERTURE END LIST*
D10*
X167877380Y-83916666D02*
X167877380Y-84392857D01*
X166877380Y-84392857D01*
X167877380Y-83583333D02*
X166877380Y-83583333D01*
X167591666Y-83250000D01*
X166877380Y-82916666D01*
X167877380Y-82916666D01*
X166877380Y-82535714D02*
X166877380Y-81869047D01*
X167877380Y-82297619D01*
X167305952Y-81345238D02*
X167258333Y-81440476D01*
X167210714Y-81488095D01*
X167115476Y-81535714D01*
X167067857Y-81535714D01*
X166972619Y-81488095D01*
X166925000Y-81440476D01*
X166877380Y-81345238D01*
X166877380Y-81154761D01*
X166925000Y-81059523D01*
X166972619Y-81011904D01*
X167067857Y-80964285D01*
X167115476Y-80964285D01*
X167210714Y-81011904D01*
X167258333Y-81059523D01*
X167305952Y-81154761D01*
X167305952Y-81345238D01*
X167353571Y-81440476D01*
X167401190Y-81488095D01*
X167496428Y-81535714D01*
X167686904Y-81535714D01*
X167782142Y-81488095D01*
X167829761Y-81440476D01*
X167877380Y-81345238D01*
X167877380Y-81154761D01*
X167829761Y-81059523D01*
X167782142Y-81011904D01*
X167686904Y-80964285D01*
X167496428Y-80964285D01*
X167401190Y-81011904D01*
X167353571Y-81059523D01*
X167305952Y-81154761D01*
X166877380Y-80345238D02*
X166877380Y-80250000D01*
X166925000Y-80154761D01*
X166972619Y-80107142D01*
X167067857Y-80059523D01*
X167258333Y-80011904D01*
X167496428Y-80011904D01*
X167686904Y-80059523D01*
X167782142Y-80107142D01*
X167829761Y-80154761D01*
X167877380Y-80250000D01*
X167877380Y-80345238D01*
X167829761Y-80440476D01*
X167782142Y-80488095D01*
X167686904Y-80535714D01*
X167496428Y-80583333D01*
X167258333Y-80583333D01*
X167067857Y-80535714D01*
X166972619Y-80488095D01*
X166925000Y-80440476D01*
X166877380Y-80345238D01*
X166877380Y-79107142D02*
X166877380Y-79583333D01*
X167353571Y-79630952D01*
X167305952Y-79583333D01*
X167258333Y-79488095D01*
X167258333Y-79250000D01*
X167305952Y-79154761D01*
X167353571Y-79107142D01*
X167448809Y-79059523D01*
X167686904Y-79059523D01*
X167782142Y-79107142D01*
X167829761Y-79154761D01*
X167877380Y-79250000D01*
X167877380Y-79488095D01*
X167829761Y-79583333D01*
X167782142Y-79630952D01*
X156782023Y-74302142D02*
X156734404Y-74349761D01*
X156591547Y-74397380D01*
X156496309Y-74397380D01*
X156353452Y-74349761D01*
X156258214Y-74254523D01*
X156210595Y-74159285D01*
X156162976Y-73968809D01*
X156162976Y-73825952D01*
X156210595Y-73635476D01*
X156258214Y-73540238D01*
X156353452Y-73445000D01*
X156496309Y-73397380D01*
X156591547Y-73397380D01*
X156734404Y-73445000D01*
X156782023Y-73492619D01*
X157067738Y-73397380D02*
X157639166Y-73397380D01*
X157353452Y-74397380D02*
X157353452Y-73397380D01*
X158543928Y-74397380D02*
X158210595Y-73921190D01*
X157972500Y-74397380D02*
X157972500Y-73397380D01*
X158353452Y-73397380D01*
X158448690Y-73445000D01*
X158496309Y-73492619D01*
X158543928Y-73587857D01*
X158543928Y-73730714D01*
X158496309Y-73825952D01*
X158448690Y-73873571D01*
X158353452Y-73921190D01*
X157972500Y-73921190D01*
X158972500Y-74016428D02*
X159734404Y-74016428D01*
X159353452Y-74397380D02*
X159353452Y-73635476D01*
X156115357Y-75007380D02*
X156782023Y-75007380D01*
X156353452Y-76007380D01*
X157162976Y-75626428D02*
X157924880Y-75626428D01*
X158924880Y-76007380D02*
X158353452Y-76007380D01*
X158639166Y-76007380D02*
X158639166Y-75007380D01*
X158543928Y-75150238D01*
X158448690Y-75245476D01*
X158353452Y-75293095D01*
X159305833Y-75102619D02*
X159353452Y-75055000D01*
X159448690Y-75007380D01*
X159686785Y-75007380D01*
X159782023Y-75055000D01*
X159829642Y-75102619D01*
X159877261Y-75197857D01*
X159877261Y-75293095D01*
X159829642Y-75435952D01*
X159258214Y-76007380D01*
X159877261Y-76007380D01*
X160162976Y-75007380D02*
X160496309Y-76007380D01*
X160829642Y-75007380D01*
X161162976Y-76007380D02*
X161162976Y-75007380D01*
X161401071Y-75007380D01*
X161543928Y-75055000D01*
X161639166Y-75150238D01*
X161686785Y-75245476D01*
X161734404Y-75435952D01*
X161734404Y-75578809D01*
X161686785Y-75769285D01*
X161639166Y-75864523D01*
X161543928Y-75959761D01*
X161401071Y-76007380D01*
X161162976Y-76007380D01*
X162734404Y-75912142D02*
X162686785Y-75959761D01*
X162543928Y-76007380D01*
X162448690Y-76007380D01*
X162305833Y-75959761D01*
X162210595Y-75864523D01*
X162162976Y-75769285D01*
X162115357Y-75578809D01*
X162115357Y-75435952D01*
X162162976Y-75245476D01*
X162210595Y-75150238D01*
X162305833Y-75055000D01*
X162448690Y-75007380D01*
X162543928Y-75007380D01*
X162686785Y-75055000D01*
X162734404Y-75102619D01*
X155662380Y-116022380D02*
X155329047Y-115546190D01*
X155090952Y-116022380D02*
X155090952Y-115022380D01*
X155471904Y-115022380D01*
X155567142Y-115070000D01*
X155614761Y-115117619D01*
X155662380Y-115212857D01*
X155662380Y-115355714D01*
X155614761Y-115450952D01*
X155567142Y-115498571D01*
X155471904Y-115546190D01*
X155090952Y-115546190D01*
X155948095Y-115022380D02*
X156519523Y-115022380D01*
X156233809Y-116022380D02*
X156233809Y-115022380D01*
X156805238Y-115974761D02*
X156948095Y-116022380D01*
X157186190Y-116022380D01*
X157281428Y-115974761D01*
X157329047Y-115927142D01*
X157376666Y-115831904D01*
X157376666Y-115736666D01*
X157329047Y-115641428D01*
X157281428Y-115593809D01*
X157186190Y-115546190D01*
X156995714Y-115498571D01*
X156900476Y-115450952D01*
X156852857Y-115403333D01*
X156805238Y-115308095D01*
X156805238Y-115212857D01*
X156852857Y-115117619D01*
X156900476Y-115070000D01*
X156995714Y-115022380D01*
X157233809Y-115022380D01*
X157376666Y-115070000D01*
X128702380Y-76961904D02*
X128702380Y-76390476D01*
X129702380Y-76676190D02*
X128702380Y-76676190D01*
X128702380Y-76152380D02*
X129702380Y-75485714D01*
X128702380Y-75485714D02*
X129702380Y-76152380D01*
X131654761Y-86812380D02*
X131654761Y-85812380D01*
X131892857Y-85812380D01*
X132035714Y-85860000D01*
X132130952Y-85955238D01*
X132178571Y-86050476D01*
X132226190Y-86240952D01*
X132226190Y-86383809D01*
X132178571Y-86574285D01*
X132130952Y-86669523D01*
X132035714Y-86764761D01*
X131892857Y-86812380D01*
X131654761Y-86812380D01*
X132511904Y-85812380D02*
X133083333Y-85812380D01*
X132797619Y-86812380D02*
X132797619Y-85812380D01*
X133416666Y-86288571D02*
X133750000Y-86288571D01*
X133892857Y-86812380D02*
X133416666Y-86812380D01*
X133416666Y-85812380D01*
X133892857Y-85812380D01*
X178452380Y-115047619D02*
X177452380Y-115047619D01*
X177452380Y-114666666D01*
X177500000Y-114571428D01*
X177547619Y-114523809D01*
X177642857Y-114476190D01*
X177785714Y-114476190D01*
X177880952Y-114523809D01*
X177928571Y-114571428D01*
X177976190Y-114666666D01*
X177976190Y-115047619D01*
X178404761Y-114095238D02*
X178452380Y-113952380D01*
X178452380Y-113714285D01*
X178404761Y-113619047D01*
X178357142Y-113571428D01*
X178261904Y-113523809D01*
X178166666Y-113523809D01*
X178071428Y-113571428D01*
X178023809Y-113619047D01*
X177976190Y-113714285D01*
X177928571Y-113904761D01*
X177880952Y-114000000D01*
X177833333Y-114047619D01*
X177738095Y-114095238D01*
X177642857Y-114095238D01*
X177547619Y-114047619D01*
X177500000Y-114000000D01*
X177452380Y-113904761D01*
X177452380Y-113666666D01*
X177500000Y-113523809D01*
X177404761Y-112380952D02*
X178690476Y-113238095D01*
X177547619Y-112095238D02*
X177500000Y-112047619D01*
X177452380Y-111952380D01*
X177452380Y-111714285D01*
X177500000Y-111619047D01*
X177547619Y-111571428D01*
X177642857Y-111523809D01*
X177738095Y-111523809D01*
X177880952Y-111571428D01*
X178452380Y-112142857D01*
X178452380Y-111523809D01*
X178452380Y-110333333D02*
X177452380Y-110333333D01*
X178452380Y-109761904D02*
X177880952Y-110190476D01*
X177452380Y-109761904D02*
X178023809Y-110333333D01*
X177976190Y-109142857D02*
X178452380Y-109142857D01*
X177452380Y-109476190D02*
X177976190Y-109142857D01*
X177452380Y-108809523D01*
X177928571Y-108142857D02*
X177976190Y-108000000D01*
X178023809Y-107952380D01*
X178119047Y-107904761D01*
X178261904Y-107904761D01*
X178357142Y-107952380D01*
X178404761Y-108000000D01*
X178452380Y-108095238D01*
X178452380Y-108476190D01*
X177452380Y-108476190D01*
X177452380Y-108142857D01*
X177500000Y-108047619D01*
X177547619Y-108000000D01*
X177642857Y-107952380D01*
X177738095Y-107952380D01*
X177833333Y-108000000D01*
X177880952Y-108047619D01*
X177928571Y-108142857D01*
X177928571Y-108476190D01*
X178452380Y-107476190D02*
X177452380Y-107476190D01*
X177452380Y-107238095D01*
X177500000Y-107095238D01*
X177595238Y-107000000D01*
X177690476Y-106952380D01*
X177880952Y-106904761D01*
X178023809Y-106904761D01*
X178214285Y-106952380D01*
X178309523Y-107000000D01*
X178404761Y-107095238D01*
X178452380Y-107238095D01*
X178452380Y-107476190D01*
X136866380Y-71897619D02*
X137866380Y-71564285D01*
X136866380Y-71230952D01*
X137866380Y-70897619D02*
X136866380Y-70897619D01*
X137866380Y-70421428D02*
X136866380Y-70421428D01*
X136866380Y-70183333D01*
X136914000Y-70040476D01*
X137009238Y-69945238D01*
X137104476Y-69897619D01*
X137294952Y-69850000D01*
X137437809Y-69850000D01*
X137628285Y-69897619D01*
X137723523Y-69945238D01*
X137818761Y-70040476D01*
X137866380Y-70183333D01*
X137866380Y-70421428D01*
X137342571Y-69421428D02*
X137342571Y-69088095D01*
X137866380Y-68945238D02*
X137866380Y-69421428D01*
X136866380Y-69421428D01*
X136866380Y-68945238D01*
X136866380Y-68326190D02*
X136866380Y-68135714D01*
X136914000Y-68040476D01*
X137009238Y-67945238D01*
X137199714Y-67897619D01*
X137533047Y-67897619D01*
X137723523Y-67945238D01*
X137818761Y-68040476D01*
X137866380Y-68135714D01*
X137866380Y-68326190D01*
X137818761Y-68421428D01*
X137723523Y-68516666D01*
X137533047Y-68564285D01*
X137199714Y-68564285D01*
X137009238Y-68516666D01*
X136914000Y-68421428D01*
X136866380Y-68326190D01*
X135452380Y-91987619D02*
X134976190Y-92320952D01*
X135452380Y-92559047D02*
X134452380Y-92559047D01*
X134452380Y-92178095D01*
X134500000Y-92082857D01*
X134547619Y-92035238D01*
X134642857Y-91987619D01*
X134785714Y-91987619D01*
X134880952Y-92035238D01*
X134928571Y-92082857D01*
X134976190Y-92178095D01*
X134976190Y-92559047D01*
X134452380Y-91701904D02*
X134452380Y-91130476D01*
X135452380Y-91416190D02*
X134452380Y-91416190D01*
X135404761Y-90844761D02*
X135452380Y-90701904D01*
X135452380Y-90463809D01*
X135404761Y-90368571D01*
X135357142Y-90320952D01*
X135261904Y-90273333D01*
X135166666Y-90273333D01*
X135071428Y-90320952D01*
X135023809Y-90368571D01*
X134976190Y-90463809D01*
X134928571Y-90654285D01*
X134880952Y-90749523D01*
X134833333Y-90797142D01*
X134738095Y-90844761D01*
X134642857Y-90844761D01*
X134547619Y-90797142D01*
X134500000Y-90749523D01*
X134452380Y-90654285D01*
X134452380Y-90416190D01*
X134500000Y-90273333D01*
X131535714Y-96972380D02*
X131535714Y-95972380D01*
X131773809Y-95972380D01*
X131916666Y-96020000D01*
X132011904Y-96115238D01*
X132059523Y-96210476D01*
X132107142Y-96400952D01*
X132107142Y-96543809D01*
X132059523Y-96734285D01*
X132011904Y-96829523D01*
X131916666Y-96924761D01*
X131773809Y-96972380D01*
X131535714Y-96972380D01*
X133107142Y-96877142D02*
X133059523Y-96924761D01*
X132916666Y-96972380D01*
X132821428Y-96972380D01*
X132678571Y-96924761D01*
X132583333Y-96829523D01*
X132535714Y-96734285D01*
X132488095Y-96543809D01*
X132488095Y-96400952D01*
X132535714Y-96210476D01*
X132583333Y-96115238D01*
X132678571Y-96020000D01*
X132821428Y-95972380D01*
X132916666Y-95972380D01*
X133059523Y-96020000D01*
X133107142Y-96067619D01*
X133535714Y-96448571D02*
X133869047Y-96448571D01*
X134011904Y-96972380D02*
X133535714Y-96972380D01*
X133535714Y-95972380D01*
X134011904Y-95972380D01*
X115252380Y-88676190D02*
X114252380Y-88676190D01*
X114252380Y-88438095D01*
X114300000Y-88295238D01*
X114395238Y-88200000D01*
X114490476Y-88152380D01*
X114680952Y-88104761D01*
X114823809Y-88104761D01*
X115014285Y-88152380D01*
X115109523Y-88200000D01*
X115204761Y-88295238D01*
X115252380Y-88438095D01*
X115252380Y-88676190D01*
X114728571Y-87342857D02*
X114776190Y-87200000D01*
X114823809Y-87152380D01*
X114919047Y-87104761D01*
X115061904Y-87104761D01*
X115157142Y-87152380D01*
X115204761Y-87200000D01*
X115252380Y-87295238D01*
X115252380Y-87676190D01*
X114252380Y-87676190D01*
X114252380Y-87342857D01*
X114300000Y-87247619D01*
X114347619Y-87200000D01*
X114442857Y-87152380D01*
X114538095Y-87152380D01*
X114633333Y-87200000D01*
X114680952Y-87247619D01*
X114728571Y-87342857D01*
X114728571Y-87676190D01*
X115252380Y-86628571D02*
X115252380Y-86438095D01*
X115204761Y-86342857D01*
X115157142Y-86295238D01*
X115014285Y-86200000D01*
X114823809Y-86152380D01*
X114442857Y-86152380D01*
X114347619Y-86200000D01*
X114300000Y-86247619D01*
X114252380Y-86342857D01*
X114252380Y-86533333D01*
X114300000Y-86628571D01*
X114347619Y-86676190D01*
X114442857Y-86723809D01*
X114680952Y-86723809D01*
X114776190Y-86676190D01*
X114823809Y-86628571D01*
X114871428Y-86533333D01*
X114871428Y-86342857D01*
X114823809Y-86247619D01*
X114776190Y-86200000D01*
X114680952Y-86152380D01*
X115252380Y-84961904D02*
X114252380Y-84961904D01*
X114966666Y-84628571D01*
X114252380Y-84295238D01*
X115252380Y-84295238D01*
X114966666Y-83866666D02*
X114966666Y-83390476D01*
X115252380Y-83961904D02*
X114252380Y-83628571D01*
X115252380Y-83295238D01*
X115252380Y-82485714D02*
X115252380Y-82961904D01*
X114252380Y-82961904D01*
X114728571Y-82152380D02*
X114728571Y-81819047D01*
X115252380Y-81676190D02*
X115252380Y-82152380D01*
X114252380Y-82152380D01*
X114252380Y-81676190D01*
X155956095Y-109688380D02*
X156527523Y-109688380D01*
X156241809Y-110688380D02*
X156241809Y-109688380D01*
X156765619Y-109688380D02*
X157432285Y-110688380D01*
X157432285Y-109688380D02*
X156765619Y-110688380D01*
X156551333Y-108148380D02*
X156218000Y-107672190D01*
X155979904Y-108148380D02*
X155979904Y-107148380D01*
X156360857Y-107148380D01*
X156456095Y-107196000D01*
X156503714Y-107243619D01*
X156551333Y-107338857D01*
X156551333Y-107481714D01*
X156503714Y-107576952D01*
X156456095Y-107624571D01*
X156360857Y-107672190D01*
X155979904Y-107672190D01*
X156884666Y-107148380D02*
X157551333Y-108148380D01*
X157551333Y-107148380D02*
X156884666Y-108148380D01*
X131504761Y-71572380D02*
X131504761Y-70572380D01*
X131742857Y-70572380D01*
X131885714Y-70620000D01*
X131980952Y-70715238D01*
X132028571Y-70810476D01*
X132076190Y-71000952D01*
X132076190Y-71143809D01*
X132028571Y-71334285D01*
X131980952Y-71429523D01*
X131885714Y-71524761D01*
X131742857Y-71572380D01*
X131504761Y-71572380D01*
X132361904Y-70572380D02*
X132933333Y-70572380D01*
X132647619Y-71572380D02*
X132647619Y-70572380D01*
X133266666Y-71048571D02*
X133600000Y-71048571D01*
X133742857Y-71572380D02*
X133266666Y-71572380D01*
X133266666Y-70572380D01*
X133742857Y-70572380D01*
X135452380Y-76366666D02*
X134976190Y-76700000D01*
X135452380Y-76938095D02*
X134452380Y-76938095D01*
X134452380Y-76557142D01*
X134500000Y-76461904D01*
X134547619Y-76414285D01*
X134642857Y-76366666D01*
X134785714Y-76366666D01*
X134880952Y-76414285D01*
X134928571Y-76461904D01*
X134976190Y-76557142D01*
X134976190Y-76938095D01*
X134452380Y-76033333D02*
X135452380Y-75366666D01*
X134452380Y-75366666D02*
X135452380Y-76033333D01*
X125785714Y-86812380D02*
X125785714Y-85812380D01*
X126023809Y-85812380D01*
X126166666Y-85860000D01*
X126261904Y-85955238D01*
X126309523Y-86050476D01*
X126357142Y-86240952D01*
X126357142Y-86383809D01*
X126309523Y-86574285D01*
X126261904Y-86669523D01*
X126166666Y-86764761D01*
X126023809Y-86812380D01*
X125785714Y-86812380D01*
X127357142Y-86717142D02*
X127309523Y-86764761D01*
X127166666Y-86812380D01*
X127071428Y-86812380D01*
X126928571Y-86764761D01*
X126833333Y-86669523D01*
X126785714Y-86574285D01*
X126738095Y-86383809D01*
X126738095Y-86240952D01*
X126785714Y-86050476D01*
X126833333Y-85955238D01*
X126928571Y-85860000D01*
X127071428Y-85812380D01*
X127166666Y-85812380D01*
X127309523Y-85860000D01*
X127357142Y-85907619D01*
X127785714Y-86288571D02*
X128119047Y-86288571D01*
X128261904Y-86812380D02*
X127785714Y-86812380D01*
X127785714Y-85812380D01*
X128261904Y-85812380D01*
X125785714Y-71572380D02*
X125785714Y-70572380D01*
X126023809Y-70572380D01*
X126166666Y-70620000D01*
X126261904Y-70715238D01*
X126309523Y-70810476D01*
X126357142Y-71000952D01*
X126357142Y-71143809D01*
X126309523Y-71334285D01*
X126261904Y-71429523D01*
X126166666Y-71524761D01*
X126023809Y-71572380D01*
X125785714Y-71572380D01*
X127357142Y-71477142D02*
X127309523Y-71524761D01*
X127166666Y-71572380D01*
X127071428Y-71572380D01*
X126928571Y-71524761D01*
X126833333Y-71429523D01*
X126785714Y-71334285D01*
X126738095Y-71143809D01*
X126738095Y-71000952D01*
X126785714Y-70810476D01*
X126833333Y-70715238D01*
X126928571Y-70620000D01*
X127071428Y-70572380D01*
X127166666Y-70572380D01*
X127309523Y-70620000D01*
X127357142Y-70667619D01*
X127785714Y-71048571D02*
X128119047Y-71048571D01*
X128261904Y-71572380D02*
X127785714Y-71572380D01*
X127785714Y-70572380D01*
X128261904Y-70572380D01*
X129607142Y-91987619D02*
X129654761Y-92035238D01*
X129702380Y-92178095D01*
X129702380Y-92273333D01*
X129654761Y-92416190D01*
X129559523Y-92511428D01*
X129464285Y-92559047D01*
X129273809Y-92606666D01*
X129130952Y-92606666D01*
X128940476Y-92559047D01*
X128845238Y-92511428D01*
X128750000Y-92416190D01*
X128702380Y-92273333D01*
X128702380Y-92178095D01*
X128750000Y-92035238D01*
X128797619Y-91987619D01*
X128702380Y-91701904D02*
X128702380Y-91130476D01*
X129702380Y-91416190D02*
X128702380Y-91416190D01*
X129654761Y-90844761D02*
X129702380Y-90701904D01*
X129702380Y-90463809D01*
X129654761Y-90368571D01*
X129607142Y-90320952D01*
X129511904Y-90273333D01*
X129416666Y-90273333D01*
X129321428Y-90320952D01*
X129273809Y-90368571D01*
X129226190Y-90463809D01*
X129178571Y-90654285D01*
X129130952Y-90749523D01*
X129083333Y-90797142D01*
X128988095Y-90844761D01*
X128892857Y-90844761D01*
X128797619Y-90797142D01*
X128750000Y-90749523D01*
X128702380Y-90654285D01*
X128702380Y-90416190D01*
X128750000Y-90273333D01*
X128246190Y-115979380D02*
X128246190Y-114979380D01*
X128484285Y-114979380D01*
X128627142Y-115027000D01*
X128722380Y-115122238D01*
X128770000Y-115217476D01*
X128817619Y-115407952D01*
X128817619Y-115550809D01*
X128770000Y-115741285D01*
X128722380Y-115836523D01*
X128627142Y-115931761D01*
X128484285Y-115979380D01*
X128246190Y-115979380D01*
X129579523Y-115455571D02*
X129722380Y-115503190D01*
X129770000Y-115550809D01*
X129817619Y-115646047D01*
X129817619Y-115788904D01*
X129770000Y-115884142D01*
X129722380Y-115931761D01*
X129627142Y-115979380D01*
X129246190Y-115979380D01*
X129246190Y-114979380D01*
X129579523Y-114979380D01*
X129674761Y-115027000D01*
X129722380Y-115074619D01*
X129770000Y-115169857D01*
X129770000Y-115265095D01*
X129722380Y-115360333D01*
X129674761Y-115407952D01*
X129579523Y-115455571D01*
X129246190Y-115455571D01*
X130293809Y-115979380D02*
X130484285Y-115979380D01*
X130579523Y-115931761D01*
X130627142Y-115884142D01*
X130722380Y-115741285D01*
X130770000Y-115550809D01*
X130770000Y-115169857D01*
X130722380Y-115074619D01*
X130674761Y-115027000D01*
X130579523Y-114979380D01*
X130389047Y-114979380D01*
X130293809Y-115027000D01*
X130246190Y-115074619D01*
X130198571Y-115169857D01*
X130198571Y-115407952D01*
X130246190Y-115503190D01*
X130293809Y-115550809D01*
X130389047Y-115598428D01*
X130579523Y-115598428D01*
X130674761Y-115550809D01*
X130722380Y-115503190D01*
X130770000Y-115407952D01*
X131960476Y-115979380D02*
X131960476Y-114979380D01*
X132341428Y-114979380D01*
X132436666Y-115027000D01*
X132484285Y-115074619D01*
X132531904Y-115169857D01*
X132531904Y-115312714D01*
X132484285Y-115407952D01*
X132436666Y-115455571D01*
X132341428Y-115503190D01*
X131960476Y-115503190D01*
X133150952Y-114979380D02*
X133341428Y-114979380D01*
X133436666Y-115027000D01*
X133531904Y-115122238D01*
X133579523Y-115312714D01*
X133579523Y-115646047D01*
X133531904Y-115836523D01*
X133436666Y-115931761D01*
X133341428Y-115979380D01*
X133150952Y-115979380D01*
X133055714Y-115931761D01*
X132960476Y-115836523D01*
X132912857Y-115646047D01*
X132912857Y-115312714D01*
X132960476Y-115122238D01*
X133055714Y-115027000D01*
X133150952Y-114979380D01*
X134579523Y-115979380D02*
X134246190Y-115503190D01*
X134008095Y-115979380D02*
X134008095Y-114979380D01*
X134389047Y-114979380D01*
X134484285Y-115027000D01*
X134531904Y-115074619D01*
X134579523Y-115169857D01*
X134579523Y-115312714D01*
X134531904Y-115407952D01*
X134484285Y-115455571D01*
X134389047Y-115503190D01*
X134008095Y-115503190D01*
X134865238Y-114979380D02*
X135436666Y-114979380D01*
X135150952Y-115979380D02*
X135150952Y-114979380D01*
X129174761Y-117494142D02*
X129127142Y-117541761D01*
X128984285Y-117589380D01*
X128889047Y-117589380D01*
X128746190Y-117541761D01*
X128650952Y-117446523D01*
X128603333Y-117351285D01*
X128555714Y-117160809D01*
X128555714Y-117017952D01*
X128603333Y-116827476D01*
X128650952Y-116732238D01*
X128746190Y-116637000D01*
X128889047Y-116589380D01*
X128984285Y-116589380D01*
X129127142Y-116637000D01*
X129174761Y-116684619D01*
X129793809Y-116589380D02*
X129984285Y-116589380D01*
X130079523Y-116637000D01*
X130174761Y-116732238D01*
X130222380Y-116922714D01*
X130222380Y-117256047D01*
X130174761Y-117446523D01*
X130079523Y-117541761D01*
X129984285Y-117589380D01*
X129793809Y-117589380D01*
X129698571Y-117541761D01*
X129603333Y-117446523D01*
X129555714Y-117256047D01*
X129555714Y-116922714D01*
X129603333Y-116732238D01*
X129698571Y-116637000D01*
X129793809Y-116589380D01*
X130650952Y-117589380D02*
X130650952Y-116589380D01*
X131222380Y-117589380D01*
X131222380Y-116589380D01*
X131698571Y-117589380D02*
X131698571Y-116589380D01*
X132270000Y-117589380D01*
X132270000Y-116589380D01*
X132746190Y-117065571D02*
X133079523Y-117065571D01*
X133222380Y-117589380D02*
X132746190Y-117589380D01*
X132746190Y-116589380D01*
X133222380Y-116589380D01*
X134222380Y-117494142D02*
X134174761Y-117541761D01*
X134031904Y-117589380D01*
X133936666Y-117589380D01*
X133793809Y-117541761D01*
X133698571Y-117446523D01*
X133650952Y-117351285D01*
X133603333Y-117160809D01*
X133603333Y-117017952D01*
X133650952Y-116827476D01*
X133698571Y-116732238D01*
X133793809Y-116637000D01*
X133936666Y-116589380D01*
X134031904Y-116589380D01*
X134174761Y-116637000D01*
X134222380Y-116684619D01*
X134508095Y-116589380D02*
X135079523Y-116589380D01*
X134793809Y-117589380D02*
X134793809Y-116589380D01*
X122372380Y-115234404D02*
X121372380Y-115234404D01*
X122086666Y-114901071D01*
X121372380Y-114567738D01*
X122372380Y-114567738D01*
X122086666Y-114139166D02*
X122086666Y-113662976D01*
X122372380Y-114234404D02*
X121372380Y-113901071D01*
X122372380Y-113567738D01*
X121372380Y-113329642D02*
X122372380Y-112662976D01*
X121372380Y-112662976D02*
X122372380Y-113329642D01*
X121467619Y-112329642D02*
X121420000Y-112282023D01*
X121372380Y-112186785D01*
X121372380Y-111948690D01*
X121420000Y-111853452D01*
X121467619Y-111805833D01*
X121562857Y-111758214D01*
X121658095Y-111758214D01*
X121800952Y-111805833D01*
X122372380Y-112377261D01*
X122372380Y-111758214D01*
X121372380Y-111424880D02*
X121372380Y-110805833D01*
X121753333Y-111139166D01*
X121753333Y-110996309D01*
X121800952Y-110901071D01*
X121848571Y-110853452D01*
X121943809Y-110805833D01*
X122181904Y-110805833D01*
X122277142Y-110853452D01*
X122324761Y-110901071D01*
X122372380Y-110996309D01*
X122372380Y-111282023D01*
X122324761Y-111377261D01*
X122277142Y-111424880D01*
X121467619Y-110424880D02*
X121420000Y-110377261D01*
X121372380Y-110282023D01*
X121372380Y-110043928D01*
X121420000Y-109948690D01*
X121467619Y-109901071D01*
X121562857Y-109853452D01*
X121658095Y-109853452D01*
X121800952Y-109901071D01*
X122372380Y-110472500D01*
X122372380Y-109853452D01*
X125904761Y-96972380D02*
X125904761Y-95972380D01*
X126142857Y-95972380D01*
X126285714Y-96020000D01*
X126380952Y-96115238D01*
X126428571Y-96210476D01*
X126476190Y-96400952D01*
X126476190Y-96543809D01*
X126428571Y-96734285D01*
X126380952Y-96829523D01*
X126285714Y-96924761D01*
X126142857Y-96972380D01*
X125904761Y-96972380D01*
X126761904Y-95972380D02*
X127333333Y-95972380D01*
X127047619Y-96972380D02*
X127047619Y-95972380D01*
X127666666Y-96448571D02*
X128000000Y-96448571D01*
X128142857Y-96972380D02*
X127666666Y-96972380D01*
X127666666Y-95972380D01*
X128142857Y-95972380D01*
X120904761Y-62872380D02*
X121095238Y-62872380D01*
X121190476Y-62920000D01*
X121285714Y-63015238D01*
X121333333Y-63205714D01*
X121333333Y-63539047D01*
X121285714Y-63729523D01*
X121190476Y-63824761D01*
X121095238Y-63872380D01*
X120904761Y-63872380D01*
X120809523Y-63824761D01*
X120714285Y-63729523D01*
X120666666Y-63539047D01*
X120666666Y-63205714D01*
X120714285Y-63015238D01*
X120809523Y-62920000D01*
X120904761Y-62872380D01*
X121761904Y-63872380D02*
X121761904Y-62872380D01*
X122333333Y-63872380D01*
X122333333Y-62872380D01*
X122809523Y-63348571D02*
X123142857Y-63348571D01*
X123285714Y-63872380D02*
X122809523Y-63872380D01*
X122809523Y-62872380D01*
X123285714Y-62872380D01*
X125047619Y-63777142D02*
X125000000Y-63824761D01*
X124857142Y-63872380D01*
X124761904Y-63872380D01*
X124619047Y-63824761D01*
X124523809Y-63729523D01*
X124476190Y-63634285D01*
X124428571Y-63443809D01*
X124428571Y-63300952D01*
X124476190Y-63110476D01*
X124523809Y-63015238D01*
X124619047Y-62920000D01*
X124761904Y-62872380D01*
X124857142Y-62872380D01*
X125000000Y-62920000D01*
X125047619Y-62967619D01*
X125476190Y-63872380D02*
X125476190Y-62872380D01*
X125476190Y-63348571D02*
X126047619Y-63348571D01*
X126047619Y-63872380D02*
X126047619Y-62872380D01*
X126523809Y-63872380D02*
X126523809Y-62872380D01*
X127000000Y-63872380D02*
X127000000Y-62872380D01*
X127380952Y-62872380D01*
X127476190Y-62920000D01*
X127523809Y-62967619D01*
X127571428Y-63062857D01*
X127571428Y-63205714D01*
X127523809Y-63300952D01*
X127476190Y-63348571D01*
X127380952Y-63396190D01*
X127000000Y-63396190D01*
X128619047Y-62872380D02*
X129190476Y-62872380D01*
X128904761Y-63872380D02*
X128904761Y-62872380D01*
X129523809Y-63348571D02*
X129857142Y-63348571D01*
X130000000Y-63872380D02*
X129523809Y-63872380D01*
X129523809Y-62872380D01*
X130000000Y-62872380D01*
X131000000Y-63872380D02*
X130666666Y-63396190D01*
X130428571Y-63872380D02*
X130428571Y-62872380D01*
X130809523Y-62872380D01*
X130904761Y-62920000D01*
X130952380Y-62967619D01*
X131000000Y-63062857D01*
X131000000Y-63205714D01*
X130952380Y-63300952D01*
X130904761Y-63348571D01*
X130809523Y-63396190D01*
X130428571Y-63396190D01*
X131428571Y-63872380D02*
X131428571Y-62872380D01*
X131761904Y-63586666D01*
X132095238Y-62872380D01*
X132095238Y-63872380D01*
X132571428Y-63872380D02*
X132571428Y-62872380D01*
X133047619Y-63872380D02*
X133047619Y-62872380D01*
X133619047Y-63872380D01*
X133619047Y-62872380D01*
X134047619Y-63586666D02*
X134523809Y-63586666D01*
X133952380Y-63872380D02*
X134285714Y-62872380D01*
X134619047Y-63872380D01*
X135428571Y-63872380D02*
X134952380Y-63872380D01*
X134952380Y-62872380D01*
X123904761Y-64958571D02*
X124047619Y-65006190D01*
X124095238Y-65053809D01*
X124142857Y-65149047D01*
X124142857Y-65291904D01*
X124095238Y-65387142D01*
X124047619Y-65434761D01*
X123952380Y-65482380D01*
X123571428Y-65482380D01*
X123571428Y-64482380D01*
X123904761Y-64482380D01*
X124000000Y-64530000D01*
X124047619Y-64577619D01*
X124095238Y-64672857D01*
X124095238Y-64768095D01*
X124047619Y-64863333D01*
X124000000Y-64910952D01*
X123904761Y-64958571D01*
X123571428Y-64958571D01*
X124761904Y-65006190D02*
X124761904Y-65482380D01*
X124428571Y-64482380D02*
X124761904Y-65006190D01*
X125095238Y-64482380D01*
X126190476Y-65482380D02*
X126190476Y-64482380D01*
X126428571Y-64482380D01*
X126571428Y-64530000D01*
X126666666Y-64625238D01*
X126714285Y-64720476D01*
X126761904Y-64910952D01*
X126761904Y-65053809D01*
X126714285Y-65244285D01*
X126666666Y-65339523D01*
X126571428Y-65434761D01*
X126428571Y-65482380D01*
X126190476Y-65482380D01*
X127952380Y-65482380D02*
X127952380Y-64482380D01*
X128285714Y-65196666D01*
X128619047Y-64482380D01*
X128619047Y-65482380D01*
X129047619Y-65196666D02*
X129523809Y-65196666D01*
X128952380Y-65482380D02*
X129285714Y-64482380D01*
X129619047Y-65482380D01*
X130523809Y-65482380D02*
X130190476Y-65006190D01*
X129952380Y-65482380D02*
X129952380Y-64482380D01*
X130333333Y-64482380D01*
X130428571Y-64530000D01*
X130476190Y-64577619D01*
X130523809Y-64672857D01*
X130523809Y-64815714D01*
X130476190Y-64910952D01*
X130428571Y-64958571D01*
X130333333Y-65006190D01*
X129952380Y-65006190D01*
X130952380Y-65482380D02*
X130952380Y-64482380D01*
X131523809Y-65482380D02*
X131095238Y-64910952D01*
X131523809Y-64482380D02*
X130952380Y-65053809D01*
X131904761Y-65434761D02*
X132047619Y-65482380D01*
X132285714Y-65482380D01*
X132380952Y-65434761D01*
X132428571Y-65387142D01*
X132476190Y-65291904D01*
X132476190Y-65196666D01*
X132428571Y-65101428D01*
X132380952Y-65053809D01*
X132285714Y-65006190D01*
X132095238Y-64958571D01*
X132000000Y-64910952D01*
X131952380Y-64863333D01*
X131904761Y-64768095D01*
X131904761Y-64672857D01*
X131952380Y-64577619D01*
X132000000Y-64530000D01*
X132095238Y-64482380D01*
X132333333Y-64482380D01*
X132476190Y-64530000D01*
X123166666Y-66997142D02*
X123119047Y-67044761D01*
X122976190Y-67092380D01*
X122880952Y-67092380D01*
X122738095Y-67044761D01*
X122642857Y-66949523D01*
X122595238Y-66854285D01*
X122547619Y-66663809D01*
X122547619Y-66520952D01*
X122595238Y-66330476D01*
X122642857Y-66235238D01*
X122738095Y-66140000D01*
X122880952Y-66092380D01*
X122976190Y-66092380D01*
X123119047Y-66140000D01*
X123166666Y-66187619D01*
X124166666Y-66997142D02*
X124119047Y-67044761D01*
X123976190Y-67092380D01*
X123880952Y-67092380D01*
X123738095Y-67044761D01*
X123642857Y-66949523D01*
X123595238Y-66854285D01*
X123547619Y-66663809D01*
X123547619Y-66520952D01*
X123595238Y-66330476D01*
X123642857Y-66235238D01*
X123738095Y-66140000D01*
X123880952Y-66092380D01*
X123976190Y-66092380D01*
X124119047Y-66140000D01*
X124166666Y-66187619D01*
X124595238Y-66711428D02*
X125357142Y-66711428D01*
X126166666Y-66568571D02*
X126309523Y-66616190D01*
X126357142Y-66663809D01*
X126404761Y-66759047D01*
X126404761Y-66901904D01*
X126357142Y-66997142D01*
X126309523Y-67044761D01*
X126214285Y-67092380D01*
X125833333Y-67092380D01*
X125833333Y-66092380D01*
X126166666Y-66092380D01*
X126261904Y-66140000D01*
X126309523Y-66187619D01*
X126357142Y-66282857D01*
X126357142Y-66378095D01*
X126309523Y-66473333D01*
X126261904Y-66520952D01*
X126166666Y-66568571D01*
X125833333Y-66568571D01*
X127023809Y-66616190D02*
X127023809Y-67092380D01*
X126690476Y-66092380D02*
X127023809Y-66616190D01*
X127357142Y-66092380D01*
X127690476Y-66711428D02*
X128452380Y-66711428D01*
X128880952Y-67044761D02*
X129023809Y-67092380D01*
X129261904Y-67092380D01*
X129357142Y-67044761D01*
X129404761Y-66997142D01*
X129452380Y-66901904D01*
X129452380Y-66806666D01*
X129404761Y-66711428D01*
X129357142Y-66663809D01*
X129261904Y-66616190D01*
X129071428Y-66568571D01*
X128976190Y-66520952D01*
X128928571Y-66473333D01*
X128880952Y-66378095D01*
X128880952Y-66282857D01*
X128928571Y-66187619D01*
X128976190Y-66140000D01*
X129071428Y-66092380D01*
X129309523Y-66092380D01*
X129452380Y-66140000D01*
X129833333Y-66806666D02*
X130309523Y-66806666D01*
X129738095Y-67092380D02*
X130071428Y-66092380D01*
X130404761Y-67092380D01*
X131928571Y-66425714D02*
X131928571Y-67092380D01*
X131690476Y-66044761D02*
X131452380Y-66759047D01*
X132071428Y-66759047D01*
X132452380Y-66997142D02*
X132500000Y-67044761D01*
X132452380Y-67092380D01*
X132404761Y-67044761D01*
X132452380Y-66997142D01*
X132452380Y-67092380D01*
X133119047Y-66092380D02*
X133214285Y-66092380D01*
X133309523Y-66140000D01*
X133357142Y-66187619D01*
X133404761Y-66282857D01*
X133452380Y-66473333D01*
X133452380Y-66711428D01*
X133404761Y-66901904D01*
X133357142Y-66997142D01*
X133309523Y-67044761D01*
X133214285Y-67092380D01*
X133119047Y-67092380D01*
X133023809Y-67044761D01*
X132976190Y-66997142D01*
X132928571Y-66901904D01*
X132880952Y-66711428D01*
X132880952Y-66473333D01*
X132928571Y-66282857D01*
X132976190Y-66187619D01*
X133023809Y-66140000D01*
X133119047Y-66092380D01*
X155448095Y-117610000D02*
X155352857Y-117562380D01*
X155210000Y-117562380D01*
X155067142Y-117610000D01*
X154971904Y-117705238D01*
X154924285Y-117800476D01*
X154876666Y-117990952D01*
X154876666Y-118133809D01*
X154924285Y-118324285D01*
X154971904Y-118419523D01*
X155067142Y-118514761D01*
X155210000Y-118562380D01*
X155305238Y-118562380D01*
X155448095Y-118514761D01*
X155495714Y-118467142D01*
X155495714Y-118133809D01*
X155305238Y-118133809D01*
X155924285Y-118562380D02*
X155924285Y-117562380D01*
X156495714Y-118562380D01*
X156495714Y-117562380D01*
X156971904Y-118562380D02*
X156971904Y-117562380D01*
X157210000Y-117562380D01*
X157352857Y-117610000D01*
X157448095Y-117705238D01*
X157495714Y-117800476D01*
X157543333Y-117990952D01*
X157543333Y-118133809D01*
X157495714Y-118324285D01*
X157448095Y-118419523D01*
X157352857Y-118514761D01*
X157210000Y-118562380D01*
X156971904Y-118562380D01*
X116075714Y-109542380D02*
X115504285Y-109542380D01*
X115790000Y-109542380D02*
X115790000Y-108542380D01*
X115694761Y-108685238D01*
X115599523Y-108780476D01*
X115504285Y-108828095D01*
X131585714Y-81732380D02*
X131585714Y-80732380D01*
X131823809Y-80732380D01*
X131966666Y-80780000D01*
X132061904Y-80875238D01*
X132109523Y-80970476D01*
X132157142Y-81160952D01*
X132157142Y-81303809D01*
X132109523Y-81494285D01*
X132061904Y-81589523D01*
X131966666Y-81684761D01*
X131823809Y-81732380D01*
X131585714Y-81732380D01*
X133157142Y-81637142D02*
X133109523Y-81684761D01*
X132966666Y-81732380D01*
X132871428Y-81732380D01*
X132728571Y-81684761D01*
X132633333Y-81589523D01*
X132585714Y-81494285D01*
X132538095Y-81303809D01*
X132538095Y-81160952D01*
X132585714Y-80970476D01*
X132633333Y-80875238D01*
X132728571Y-80780000D01*
X132871428Y-80732380D01*
X132966666Y-80732380D01*
X133109523Y-80780000D01*
X133157142Y-80827619D01*
X133585714Y-81208571D02*
X133919047Y-81208571D01*
X134061904Y-81732380D02*
X133585714Y-81732380D01*
X133585714Y-80732380D01*
X134061904Y-80732380D01*
X156527523Y-104727380D02*
X156051333Y-104727380D01*
X156003714Y-105203571D01*
X156051333Y-105155952D01*
X156146571Y-105108333D01*
X156384666Y-105108333D01*
X156479904Y-105155952D01*
X156527523Y-105203571D01*
X156575142Y-105298809D01*
X156575142Y-105536904D01*
X156527523Y-105632142D01*
X156479904Y-105679761D01*
X156384666Y-105727380D01*
X156146571Y-105727380D01*
X156051333Y-105679761D01*
X156003714Y-105632142D01*
X156860857Y-104727380D02*
X157194190Y-105727380D01*
X157527523Y-104727380D01*
X125904761Y-81732380D02*
X125904761Y-80732380D01*
X126142857Y-80732380D01*
X126285714Y-80780000D01*
X126380952Y-80875238D01*
X126428571Y-80970476D01*
X126476190Y-81160952D01*
X126476190Y-81303809D01*
X126428571Y-81494285D01*
X126380952Y-81589523D01*
X126285714Y-81684761D01*
X126142857Y-81732380D01*
X125904761Y-81732380D01*
X126761904Y-80732380D02*
X127333333Y-80732380D01*
X127047619Y-81732380D02*
X127047619Y-80732380D01*
X127666666Y-81208571D02*
X128000000Y-81208571D01*
X128142857Y-81732380D02*
X127666666Y-81732380D01*
X127666666Y-80732380D01*
X128142857Y-80732380D01*
X155662380Y-113133142D02*
X155614761Y-113180761D01*
X155471904Y-113228380D01*
X155376666Y-113228380D01*
X155233809Y-113180761D01*
X155138571Y-113085523D01*
X155090952Y-112990285D01*
X155043333Y-112799809D01*
X155043333Y-112656952D01*
X155090952Y-112466476D01*
X155138571Y-112371238D01*
X155233809Y-112276000D01*
X155376666Y-112228380D01*
X155471904Y-112228380D01*
X155614761Y-112276000D01*
X155662380Y-112323619D01*
X155948095Y-112228380D02*
X156519523Y-112228380D01*
X156233809Y-113228380D02*
X156233809Y-112228380D01*
X156805238Y-113180761D02*
X156948095Y-113228380D01*
X157186190Y-113228380D01*
X157281428Y-113180761D01*
X157329047Y-113133142D01*
X157376666Y-113037904D01*
X157376666Y-112942666D01*
X157329047Y-112847428D01*
X157281428Y-112799809D01*
X157186190Y-112752190D01*
X156995714Y-112704571D01*
X156900476Y-112656952D01*
X156852857Y-112609333D01*
X156805238Y-112514095D01*
X156805238Y-112418857D01*
X156852857Y-112323619D01*
X156900476Y-112276000D01*
X156995714Y-112228380D01*
X157233809Y-112228380D01*
X157376666Y-112276000D01*
%TO.C,C1*%
X156333142Y-123578666D02*
X156380761Y-123626285D01*
X156428380Y-123769142D01*
X156428380Y-123864380D01*
X156380761Y-124007238D01*
X156285523Y-124102476D01*
X156190285Y-124150095D01*
X155999809Y-124197714D01*
X155856952Y-124197714D01*
X155666476Y-124150095D01*
X155571238Y-124102476D01*
X155476000Y-124007238D01*
X155428380Y-123864380D01*
X155428380Y-123769142D01*
X155476000Y-123626285D01*
X155523619Y-123578666D01*
X156428380Y-122626285D02*
X156428380Y-123197714D01*
X156428380Y-122912000D02*
X155428380Y-122912000D01*
X155571238Y-123007238D01*
X155666476Y-123102476D01*
X155714095Y-123197714D01*
%TO.C,C8*%
X175233333Y-75157142D02*
X175185714Y-75204761D01*
X175042857Y-75252380D01*
X174947619Y-75252380D01*
X174804761Y-75204761D01*
X174709523Y-75109523D01*
X174661904Y-75014285D01*
X174614285Y-74823809D01*
X174614285Y-74680952D01*
X174661904Y-74490476D01*
X174709523Y-74395238D01*
X174804761Y-74300000D01*
X174947619Y-74252380D01*
X175042857Y-74252380D01*
X175185714Y-74300000D01*
X175233333Y-74347619D01*
X175804761Y-74680952D02*
X175709523Y-74633333D01*
X175661904Y-74585714D01*
X175614285Y-74490476D01*
X175614285Y-74442857D01*
X175661904Y-74347619D01*
X175709523Y-74300000D01*
X175804761Y-74252380D01*
X175995238Y-74252380D01*
X176090476Y-74300000D01*
X176138095Y-74347619D01*
X176185714Y-74442857D01*
X176185714Y-74490476D01*
X176138095Y-74585714D01*
X176090476Y-74633333D01*
X175995238Y-74680952D01*
X175804761Y-74680952D01*
X175709523Y-74728571D01*
X175661904Y-74776190D01*
X175614285Y-74871428D01*
X175614285Y-75061904D01*
X175661904Y-75157142D01*
X175709523Y-75204761D01*
X175804761Y-75252380D01*
X175995238Y-75252380D01*
X176090476Y-75204761D01*
X176138095Y-75157142D01*
X176185714Y-75061904D01*
X176185714Y-74871428D01*
X176138095Y-74776190D01*
X176090476Y-74728571D01*
X175995238Y-74680952D01*
%TO.C,C11*%
X171357142Y-90107142D02*
X171309523Y-90154761D01*
X171166666Y-90202380D01*
X171071428Y-90202380D01*
X170928571Y-90154761D01*
X170833333Y-90059523D01*
X170785714Y-89964285D01*
X170738095Y-89773809D01*
X170738095Y-89630952D01*
X170785714Y-89440476D01*
X170833333Y-89345238D01*
X170928571Y-89250000D01*
X171071428Y-89202380D01*
X171166666Y-89202380D01*
X171309523Y-89250000D01*
X171357142Y-89297619D01*
X172309523Y-90202380D02*
X171738095Y-90202380D01*
X172023809Y-90202380D02*
X172023809Y-89202380D01*
X171928571Y-89345238D01*
X171833333Y-89440476D01*
X171738095Y-89488095D01*
X173261904Y-90202380D02*
X172690476Y-90202380D01*
X172976190Y-90202380D02*
X172976190Y-89202380D01*
X172880952Y-89345238D01*
X172785714Y-89440476D01*
X172690476Y-89488095D01*
%TO.C,J1*%
X156202380Y-63883333D02*
X156916666Y-63883333D01*
X157059523Y-63930952D01*
X157154761Y-64026190D01*
X157202380Y-64169047D01*
X157202380Y-64264285D01*
X157202380Y-62883333D02*
X157202380Y-63454761D01*
X157202380Y-63169047D02*
X156202380Y-63169047D01*
X156345238Y-63264285D01*
X156440476Y-63359523D01*
X156488095Y-63454761D01*
%TO.C,R1*%
X167991333Y-125520380D02*
X167658000Y-125044190D01*
X167419904Y-125520380D02*
X167419904Y-124520380D01*
X167800857Y-124520380D01*
X167896095Y-124568000D01*
X167943714Y-124615619D01*
X167991333Y-124710857D01*
X167991333Y-124853714D01*
X167943714Y-124948952D01*
X167896095Y-124996571D01*
X167800857Y-125044190D01*
X167419904Y-125044190D01*
X168943714Y-125520380D02*
X168372285Y-125520380D01*
X168658000Y-125520380D02*
X168658000Y-124520380D01*
X168562761Y-124663238D01*
X168467523Y-124758476D01*
X168372285Y-124806095D01*
%TO.C,R2*%
X167981333Y-122018380D02*
X167648000Y-121542190D01*
X167409904Y-122018380D02*
X167409904Y-121018380D01*
X167790857Y-121018380D01*
X167886095Y-121066000D01*
X167933714Y-121113619D01*
X167981333Y-121208857D01*
X167981333Y-121351714D01*
X167933714Y-121446952D01*
X167886095Y-121494571D01*
X167790857Y-121542190D01*
X167409904Y-121542190D01*
X168362285Y-121113619D02*
X168409904Y-121066000D01*
X168505142Y-121018380D01*
X168743238Y-121018380D01*
X168838476Y-121066000D01*
X168886095Y-121113619D01*
X168933714Y-121208857D01*
X168933714Y-121304095D01*
X168886095Y-121446952D01*
X168314666Y-122018380D01*
X168933714Y-122018380D01*
%TO.C,R6*%
X161154380Y-96940666D02*
X160678190Y-97274000D01*
X161154380Y-97512095D02*
X160154380Y-97512095D01*
X160154380Y-97131142D01*
X160202000Y-97035904D01*
X160249619Y-96988285D01*
X160344857Y-96940666D01*
X160487714Y-96940666D01*
X160582952Y-96988285D01*
X160630571Y-97035904D01*
X160678190Y-97131142D01*
X160678190Y-97512095D01*
X160154380Y-96083523D02*
X160154380Y-96274000D01*
X160202000Y-96369238D01*
X160249619Y-96416857D01*
X160392476Y-96512095D01*
X160582952Y-96559714D01*
X160963904Y-96559714D01*
X161059142Y-96512095D01*
X161106761Y-96464476D01*
X161154380Y-96369238D01*
X161154380Y-96178761D01*
X161106761Y-96083523D01*
X161059142Y-96035904D01*
X160963904Y-95988285D01*
X160725809Y-95988285D01*
X160630571Y-96035904D01*
X160582952Y-96083523D01*
X160535333Y-96178761D01*
X160535333Y-96369238D01*
X160582952Y-96464476D01*
X160630571Y-96512095D01*
X160725809Y-96559714D01*
%TO.C,R7*%
X164790380Y-97150666D02*
X164314190Y-97484000D01*
X164790380Y-97722095D02*
X163790380Y-97722095D01*
X163790380Y-97341142D01*
X163838000Y-97245904D01*
X163885619Y-97198285D01*
X163980857Y-97150666D01*
X164123714Y-97150666D01*
X164218952Y-97198285D01*
X164266571Y-97245904D01*
X164314190Y-97341142D01*
X164314190Y-97722095D01*
X163790380Y-96817333D02*
X163790380Y-96150666D01*
X164790380Y-96579238D01*
%TO.C,U4*%
X177532380Y-82801904D02*
X178341904Y-82801904D01*
X178437142Y-82754285D01*
X178484761Y-82706666D01*
X178532380Y-82611428D01*
X178532380Y-82420952D01*
X178484761Y-82325714D01*
X178437142Y-82278095D01*
X178341904Y-82230476D01*
X177532380Y-82230476D01*
X177865714Y-81325714D02*
X178532380Y-81325714D01*
X177484761Y-81563809D02*
X178199047Y-81801904D01*
X178199047Y-81182857D01*
%TO.C,C6*%
X169833333Y-75157142D02*
X169785714Y-75204761D01*
X169642857Y-75252380D01*
X169547619Y-75252380D01*
X169404761Y-75204761D01*
X169309523Y-75109523D01*
X169261904Y-75014285D01*
X169214285Y-74823809D01*
X169214285Y-74680952D01*
X169261904Y-74490476D01*
X169309523Y-74395238D01*
X169404761Y-74300000D01*
X169547619Y-74252380D01*
X169642857Y-74252380D01*
X169785714Y-74300000D01*
X169833333Y-74347619D01*
X170690476Y-74252380D02*
X170500000Y-74252380D01*
X170404761Y-74300000D01*
X170357142Y-74347619D01*
X170261904Y-74490476D01*
X170214285Y-74680952D01*
X170214285Y-75061904D01*
X170261904Y-75157142D01*
X170309523Y-75204761D01*
X170404761Y-75252380D01*
X170595238Y-75252380D01*
X170690476Y-75204761D01*
X170738095Y-75157142D01*
X170785714Y-75061904D01*
X170785714Y-74823809D01*
X170738095Y-74728571D01*
X170690476Y-74680952D01*
X170595238Y-74633333D01*
X170404761Y-74633333D01*
X170309523Y-74680952D01*
X170261904Y-74728571D01*
X170214285Y-74823809D01*
%TO.C,R9*%
X162901333Y-90114380D02*
X162568000Y-89638190D01*
X162329904Y-90114380D02*
X162329904Y-89114380D01*
X162710857Y-89114380D01*
X162806095Y-89162000D01*
X162853714Y-89209619D01*
X162901333Y-89304857D01*
X162901333Y-89447714D01*
X162853714Y-89542952D01*
X162806095Y-89590571D01*
X162710857Y-89638190D01*
X162329904Y-89638190D01*
X163377523Y-90114380D02*
X163568000Y-90114380D01*
X163663238Y-90066761D01*
X163710857Y-90019142D01*
X163806095Y-89876285D01*
X163853714Y-89685809D01*
X163853714Y-89304857D01*
X163806095Y-89209619D01*
X163758476Y-89162000D01*
X163663238Y-89114380D01*
X163472761Y-89114380D01*
X163377523Y-89162000D01*
X163329904Y-89209619D01*
X163282285Y-89304857D01*
X163282285Y-89542952D01*
X163329904Y-89638190D01*
X163377523Y-89685809D01*
X163472761Y-89733428D01*
X163663238Y-89733428D01*
X163758476Y-89685809D01*
X163806095Y-89638190D01*
X163853714Y-89542952D01*
%TO.C,C10*%
X178357142Y-123892857D02*
X178404761Y-123940476D01*
X178452380Y-124083333D01*
X178452380Y-124178571D01*
X178404761Y-124321428D01*
X178309523Y-124416666D01*
X178214285Y-124464285D01*
X178023809Y-124511904D01*
X177880952Y-124511904D01*
X177690476Y-124464285D01*
X177595238Y-124416666D01*
X177500000Y-124321428D01*
X177452380Y-124178571D01*
X177452380Y-124083333D01*
X177500000Y-123940476D01*
X177547619Y-123892857D01*
X178452380Y-122940476D02*
X178452380Y-123511904D01*
X178452380Y-123226190D02*
X177452380Y-123226190D01*
X177595238Y-123321428D01*
X177690476Y-123416666D01*
X177738095Y-123511904D01*
X177452380Y-122321428D02*
X177452380Y-122226190D01*
X177500000Y-122130952D01*
X177547619Y-122083333D01*
X177642857Y-122035714D01*
X177833333Y-121988095D01*
X178071428Y-121988095D01*
X178261904Y-122035714D01*
X178357142Y-122083333D01*
X178404761Y-122130952D01*
X178452380Y-122226190D01*
X178452380Y-122321428D01*
X178404761Y-122416666D01*
X178357142Y-122464285D01*
X178261904Y-122511904D01*
X178071428Y-122559523D01*
X177833333Y-122559523D01*
X177642857Y-122511904D01*
X177547619Y-122464285D01*
X177500000Y-122416666D01*
X177452380Y-122321428D01*
%TO.C,J8*%
X159178666Y-102362380D02*
X159178666Y-103076666D01*
X159131047Y-103219523D01*
X159035809Y-103314761D01*
X158892952Y-103362380D01*
X158797714Y-103362380D01*
X159797714Y-102790952D02*
X159702476Y-102743333D01*
X159654857Y-102695714D01*
X159607238Y-102600476D01*
X159607238Y-102552857D01*
X159654857Y-102457619D01*
X159702476Y-102410000D01*
X159797714Y-102362380D01*
X159988190Y-102362380D01*
X160083428Y-102410000D01*
X160131047Y-102457619D01*
X160178666Y-102552857D01*
X160178666Y-102600476D01*
X160131047Y-102695714D01*
X160083428Y-102743333D01*
X159988190Y-102790952D01*
X159797714Y-102790952D01*
X159702476Y-102838571D01*
X159654857Y-102886190D01*
X159607238Y-102981428D01*
X159607238Y-103171904D01*
X159654857Y-103267142D01*
X159702476Y-103314761D01*
X159797714Y-103362380D01*
X159988190Y-103362380D01*
X160083428Y-103314761D01*
X160131047Y-103267142D01*
X160178666Y-103171904D01*
X160178666Y-102981428D01*
X160131047Y-102886190D01*
X160083428Y-102838571D01*
X159988190Y-102790952D01*
%TO.C,J2*%
X136772380Y-65718333D02*
X137486666Y-65718333D01*
X137629523Y-65765952D01*
X137724761Y-65861190D01*
X137772380Y-66004047D01*
X137772380Y-66099285D01*
X136867619Y-65289761D02*
X136820000Y-65242142D01*
X136772380Y-65146904D01*
X136772380Y-64908809D01*
X136820000Y-64813571D01*
X136867619Y-64765952D01*
X136962857Y-64718333D01*
X137058095Y-64718333D01*
X137200952Y-64765952D01*
X137772380Y-65337380D01*
X137772380Y-64718333D01*
%TO.C,P1*%
X162602380Y-111508095D02*
X161602380Y-111508095D01*
X161602380Y-111127142D01*
X161650000Y-111031904D01*
X161697619Y-110984285D01*
X161792857Y-110936666D01*
X161935714Y-110936666D01*
X162030952Y-110984285D01*
X162078571Y-111031904D01*
X162126190Y-111127142D01*
X162126190Y-111508095D01*
X162602380Y-109984285D02*
X162602380Y-110555714D01*
X162602380Y-110270000D02*
X161602380Y-110270000D01*
X161745238Y-110365238D01*
X161840476Y-110460476D01*
X161888095Y-110555714D01*
%TO.C,UB1*%
X143873695Y-76846180D02*
X143873695Y-77655704D01*
X143921314Y-77750942D01*
X143968933Y-77798561D01*
X144064171Y-77846180D01*
X144254647Y-77846180D01*
X144349885Y-77798561D01*
X144397504Y-77750942D01*
X144445123Y-77655704D01*
X144445123Y-76846180D01*
X145254647Y-77322371D02*
X145397504Y-77369990D01*
X145445123Y-77417609D01*
X145492742Y-77512847D01*
X145492742Y-77655704D01*
X145445123Y-77750942D01*
X145397504Y-77798561D01*
X145302266Y-77846180D01*
X144921314Y-77846180D01*
X144921314Y-76846180D01*
X145254647Y-76846180D01*
X145349885Y-76893800D01*
X145397504Y-76941419D01*
X145445123Y-77036657D01*
X145445123Y-77131895D01*
X145397504Y-77227133D01*
X145349885Y-77274752D01*
X145254647Y-77322371D01*
X144921314Y-77322371D01*
X146445123Y-77846180D02*
X145873695Y-77846180D01*
X146159409Y-77846180D02*
X146159409Y-76846180D01*
X146064171Y-76989038D01*
X145968933Y-77084276D01*
X145873695Y-77131895D01*
X139749947Y-79208261D02*
X139892804Y-79255880D01*
X140130900Y-79255880D01*
X140226138Y-79208261D01*
X140273757Y-79160642D01*
X140321376Y-79065404D01*
X140321376Y-78970166D01*
X140273757Y-78874928D01*
X140226138Y-78827309D01*
X140130900Y-78779690D01*
X139940423Y-78732071D01*
X139845185Y-78684452D01*
X139797566Y-78636833D01*
X139749947Y-78541595D01*
X139749947Y-78446357D01*
X139797566Y-78351119D01*
X139845185Y-78303500D01*
X139940423Y-78255880D01*
X140178519Y-78255880D01*
X140321376Y-78303500D01*
X140607090Y-78255880D02*
X141178519Y-78255880D01*
X140892804Y-79255880D02*
X140892804Y-78255880D01*
X141511852Y-79255880D02*
X141511852Y-78255880D01*
X141845185Y-78970166D01*
X142178519Y-78255880D01*
X142178519Y-79255880D01*
X142559471Y-78255880D02*
X143178519Y-78255880D01*
X142845185Y-78636833D01*
X142988042Y-78636833D01*
X143083280Y-78684452D01*
X143130900Y-78732071D01*
X143178519Y-78827309D01*
X143178519Y-79065404D01*
X143130900Y-79160642D01*
X143083280Y-79208261D01*
X142988042Y-79255880D01*
X142702328Y-79255880D01*
X142607090Y-79208261D01*
X142559471Y-79160642D01*
X143559471Y-78351119D02*
X143607090Y-78303500D01*
X143702328Y-78255880D01*
X143940423Y-78255880D01*
X144035661Y-78303500D01*
X144083280Y-78351119D01*
X144130900Y-78446357D01*
X144130900Y-78541595D01*
X144083280Y-78684452D01*
X143511852Y-79255880D01*
X144130900Y-79255880D01*
X144892804Y-78732071D02*
X144559471Y-78732071D01*
X144559471Y-79255880D02*
X144559471Y-78255880D01*
X145035661Y-78255880D01*
X145940423Y-79255880D02*
X145368995Y-79255880D01*
X145654709Y-79255880D02*
X145654709Y-78255880D01*
X145559471Y-78398738D01*
X145464233Y-78493976D01*
X145368995Y-78541595D01*
X146559471Y-78255880D02*
X146654709Y-78255880D01*
X146749947Y-78303500D01*
X146797566Y-78351119D01*
X146845185Y-78446357D01*
X146892804Y-78636833D01*
X146892804Y-78874928D01*
X146845185Y-79065404D01*
X146797566Y-79160642D01*
X146749947Y-79208261D01*
X146654709Y-79255880D01*
X146559471Y-79255880D01*
X146464233Y-79208261D01*
X146416614Y-79160642D01*
X146368995Y-79065404D01*
X146321376Y-78874928D01*
X146321376Y-78636833D01*
X146368995Y-78446357D01*
X146416614Y-78351119D01*
X146464233Y-78303500D01*
X146559471Y-78255880D01*
X147226138Y-78255880D02*
X147845185Y-78255880D01*
X147511852Y-78636833D01*
X147654709Y-78636833D01*
X147749947Y-78684452D01*
X147797566Y-78732071D01*
X147845185Y-78827309D01*
X147845185Y-79065404D01*
X147797566Y-79160642D01*
X147749947Y-79208261D01*
X147654709Y-79255880D01*
X147368995Y-79255880D01*
X147273757Y-79208261D01*
X147226138Y-79160642D01*
X148845185Y-79160642D02*
X148797566Y-79208261D01*
X148654709Y-79255880D01*
X148559471Y-79255880D01*
X148416614Y-79208261D01*
X148321376Y-79113023D01*
X148273757Y-79017785D01*
X148226138Y-78827309D01*
X148226138Y-78684452D01*
X148273757Y-78493976D01*
X148321376Y-78398738D01*
X148416614Y-78303500D01*
X148559471Y-78255880D01*
X148654709Y-78255880D01*
X148797566Y-78303500D01*
X148845185Y-78351119D01*
X149416614Y-78684452D02*
X149321376Y-78636833D01*
X149273757Y-78589214D01*
X149226138Y-78493976D01*
X149226138Y-78446357D01*
X149273757Y-78351119D01*
X149321376Y-78303500D01*
X149416614Y-78255880D01*
X149607090Y-78255880D01*
X149702328Y-78303500D01*
X149749947Y-78351119D01*
X149797566Y-78446357D01*
X149797566Y-78493976D01*
X149749947Y-78589214D01*
X149702328Y-78636833D01*
X149607090Y-78684452D01*
X149416614Y-78684452D01*
X149321376Y-78732071D01*
X149273757Y-78779690D01*
X149226138Y-78874928D01*
X149226138Y-79065404D01*
X149273757Y-79160642D01*
X149321376Y-79208261D01*
X149416614Y-79255880D01*
X149607090Y-79255880D01*
X149702328Y-79208261D01*
X149749947Y-79160642D01*
X149797566Y-79065404D01*
X149797566Y-78874928D01*
X149749947Y-78779690D01*
X149702328Y-78732071D01*
X149607090Y-78684452D01*
X150083280Y-78255880D02*
X150654709Y-78255880D01*
X150368995Y-79255880D02*
X150368995Y-78255880D01*
X151416614Y-78255880D02*
X151226138Y-78255880D01*
X151130900Y-78303500D01*
X151083280Y-78351119D01*
X150988042Y-78493976D01*
X150940423Y-78684452D01*
X150940423Y-79065404D01*
X150988042Y-79160642D01*
X151035661Y-79208261D01*
X151130900Y-79255880D01*
X151321376Y-79255880D01*
X151416614Y-79208261D01*
X151464233Y-79160642D01*
X151511852Y-79065404D01*
X151511852Y-78827309D01*
X151464233Y-78732071D01*
X151416614Y-78684452D01*
X151321376Y-78636833D01*
X151130900Y-78636833D01*
X151035661Y-78684452D01*
X150988042Y-78732071D01*
X150940423Y-78827309D01*
X141588004Y-79627480D02*
X141588004Y-79817957D01*
X141968957Y-79627480D02*
X141968957Y-79817957D01*
X142921338Y-79675100D02*
X142826100Y-79627480D01*
X142683242Y-79627480D01*
X142540385Y-79675100D01*
X142445147Y-79770338D01*
X142397528Y-79865576D01*
X142349909Y-80056052D01*
X142349909Y-80198909D01*
X142397528Y-80389385D01*
X142445147Y-80484623D01*
X142540385Y-80579861D01*
X142683242Y-80627480D01*
X142778480Y-80627480D01*
X142921338Y-80579861D01*
X142968957Y-80532242D01*
X142968957Y-80198909D01*
X142778480Y-80198909D01*
X143397528Y-80103671D02*
X143730861Y-80103671D01*
X143873719Y-80627480D02*
X143397528Y-80627480D01*
X143397528Y-79627480D01*
X143873719Y-79627480D01*
X144302290Y-80627480D02*
X144302290Y-79627480D01*
X144873719Y-80627480D01*
X144873719Y-79627480D01*
X145349909Y-80103671D02*
X145683242Y-80103671D01*
X145826100Y-80627480D02*
X145349909Y-80627480D01*
X145349909Y-79627480D01*
X145826100Y-79627480D01*
X146826100Y-80627480D02*
X146492766Y-80151290D01*
X146254671Y-80627480D02*
X146254671Y-79627480D01*
X146635623Y-79627480D01*
X146730861Y-79675100D01*
X146778480Y-79722719D01*
X146826100Y-79817957D01*
X146826100Y-79960814D01*
X146778480Y-80056052D01*
X146730861Y-80103671D01*
X146635623Y-80151290D01*
X146254671Y-80151290D01*
X147254671Y-80627480D02*
X147254671Y-79627480D01*
X148302290Y-80532242D02*
X148254671Y-80579861D01*
X148111814Y-80627480D01*
X148016576Y-80627480D01*
X147873719Y-80579861D01*
X147778480Y-80484623D01*
X147730861Y-80389385D01*
X147683242Y-80198909D01*
X147683242Y-80056052D01*
X147730861Y-79865576D01*
X147778480Y-79770338D01*
X147873719Y-79675100D01*
X148016576Y-79627480D01*
X148111814Y-79627480D01*
X148254671Y-79675100D01*
X148302290Y-79722719D01*
X148683242Y-79627480D02*
X148683242Y-79817957D01*
X149064195Y-79627480D02*
X149064195Y-79817957D01*
%TO.C,C7*%
X125389333Y-101127142D02*
X125341714Y-101174761D01*
X125198857Y-101222380D01*
X125103619Y-101222380D01*
X124960761Y-101174761D01*
X124865523Y-101079523D01*
X124817904Y-100984285D01*
X124770285Y-100793809D01*
X124770285Y-100650952D01*
X124817904Y-100460476D01*
X124865523Y-100365238D01*
X124960761Y-100270000D01*
X125103619Y-100222380D01*
X125198857Y-100222380D01*
X125341714Y-100270000D01*
X125389333Y-100317619D01*
X125722666Y-100222380D02*
X126389333Y-100222380D01*
X125960761Y-101222380D01*
%TO.C,C3*%
X132227333Y-107758030D02*
X132179714Y-107805649D01*
X132036857Y-107853268D01*
X131941619Y-107853268D01*
X131798761Y-107805649D01*
X131703523Y-107710411D01*
X131655904Y-107615173D01*
X131608285Y-107424697D01*
X131608285Y-107281840D01*
X131655904Y-107091364D01*
X131703523Y-106996126D01*
X131798761Y-106900888D01*
X131941619Y-106853268D01*
X132036857Y-106853268D01*
X132179714Y-106900888D01*
X132227333Y-106948507D01*
X132560666Y-106853268D02*
X133179714Y-106853268D01*
X132846380Y-107234221D01*
X132989238Y-107234221D01*
X133084476Y-107281840D01*
X133132095Y-107329459D01*
X133179714Y-107424697D01*
X133179714Y-107662792D01*
X133132095Y-107758030D01*
X133084476Y-107805649D01*
X132989238Y-107853268D01*
X132703523Y-107853268D01*
X132608285Y-107805649D01*
X132560666Y-107758030D01*
%TO.C,C2*%
X132822255Y-132266666D02*
X132869874Y-132314285D01*
X132917493Y-132457142D01*
X132917493Y-132552380D01*
X132869874Y-132695238D01*
X132774636Y-132790476D01*
X132679398Y-132838095D01*
X132488922Y-132885714D01*
X132346065Y-132885714D01*
X132155589Y-132838095D01*
X132060351Y-132790476D01*
X131965113Y-132695238D01*
X131917493Y-132552380D01*
X131917493Y-132457142D01*
X131965113Y-132314285D01*
X132012732Y-132266666D01*
X132012732Y-131885714D02*
X131965113Y-131838095D01*
X131917493Y-131742857D01*
X131917493Y-131504761D01*
X131965113Y-131409523D01*
X132012732Y-131361904D01*
X132107970Y-131314285D01*
X132203208Y-131314285D01*
X132346065Y-131361904D01*
X132917493Y-131933333D01*
X132917493Y-131314285D01*
%TO.C,J7*%
X123652380Y-84873333D02*
X124366666Y-84873333D01*
X124509523Y-84920952D01*
X124604761Y-85016190D01*
X124652380Y-85159047D01*
X124652380Y-85254285D01*
X123652380Y-84492380D02*
X123652380Y-83825714D01*
X124652380Y-84254285D01*
%TO.C,C4*%
X125727143Y-132136666D02*
X125774762Y-132184285D01*
X125822381Y-132327142D01*
X125822381Y-132422380D01*
X125774762Y-132565238D01*
X125679524Y-132660476D01*
X125584286Y-132708095D01*
X125393810Y-132755714D01*
X125250953Y-132755714D01*
X125060477Y-132708095D01*
X124965239Y-132660476D01*
X124870001Y-132565238D01*
X124822381Y-132422380D01*
X124822381Y-132327142D01*
X124870001Y-132184285D01*
X124917620Y-132136666D01*
X125155715Y-131279523D02*
X125822381Y-131279523D01*
X124774762Y-131517619D02*
X125489048Y-131755714D01*
X125489048Y-131136666D01*
%TO.C,C5*%
X117639333Y-101505142D02*
X117591714Y-101552761D01*
X117448857Y-101600380D01*
X117353619Y-101600380D01*
X117210761Y-101552761D01*
X117115523Y-101457523D01*
X117067904Y-101362285D01*
X117020285Y-101171809D01*
X117020285Y-101028952D01*
X117067904Y-100838476D01*
X117115523Y-100743238D01*
X117210761Y-100648000D01*
X117353619Y-100600380D01*
X117448857Y-100600380D01*
X117591714Y-100648000D01*
X117639333Y-100695619D01*
X118544095Y-100600380D02*
X118067904Y-100600380D01*
X118020285Y-101076571D01*
X118067904Y-101028952D01*
X118163142Y-100981333D01*
X118401238Y-100981333D01*
X118496476Y-101028952D01*
X118544095Y-101076571D01*
X118591714Y-101171809D01*
X118591714Y-101409904D01*
X118544095Y-101505142D01*
X118496476Y-101552761D01*
X118401238Y-101600380D01*
X118163142Y-101600380D01*
X118067904Y-101552761D01*
X118020285Y-101505142D01*
%TO.C,U1*%
X121158095Y-106342380D02*
X121158095Y-107151904D01*
X121205714Y-107247142D01*
X121253333Y-107294761D01*
X121348571Y-107342380D01*
X121539047Y-107342380D01*
X121634285Y-107294761D01*
X121681904Y-107247142D01*
X121729523Y-107151904D01*
X121729523Y-106342380D01*
X122729523Y-107342380D02*
X122158095Y-107342380D01*
X122443809Y-107342380D02*
X122443809Y-106342380D01*
X122348571Y-106485238D01*
X122253333Y-106580476D01*
X122158095Y-106628095D01*
D11*
%TO.C,C1*%
X157077000Y-125081000D02*
X157077000Y-124738000D01*
X157997000Y-125945000D02*
X157997000Y-124738000D01*
X157557000Y-125635000D02*
X157557000Y-124738000D01*
X157717000Y-125763000D02*
X157717000Y-124738000D01*
X157397000Y-125483000D02*
X157397000Y-124738000D01*
X157557000Y-122658000D02*
X157557000Y-121761000D01*
X157637000Y-125702000D02*
X157637000Y-124738000D01*
X157237000Y-122658000D02*
X157237000Y-122093000D01*
X156957000Y-124876000D02*
X156957000Y-122520000D01*
X162082775Y-125173000D02*
X161582775Y-125173000D01*
X157837000Y-125847000D02*
X157837000Y-124738000D01*
X157957000Y-122658000D02*
X157957000Y-121474000D01*
X158317000Y-122658000D02*
X158317000Y-121300000D01*
X157677000Y-125733000D02*
X157677000Y-124738000D01*
X157797000Y-125820000D02*
X157797000Y-124738000D01*
X159278000Y-126278000D02*
X159278000Y-121118000D01*
X157197000Y-125252000D02*
X157197000Y-124738000D01*
X158357000Y-122658000D02*
X158357000Y-121284000D01*
X156797000Y-124503000D02*
X156797000Y-122893000D01*
X158077000Y-125988000D02*
X158077000Y-124738000D01*
X157197000Y-122658000D02*
X157197000Y-122144000D01*
X159118000Y-126274000D02*
X159118000Y-121122000D01*
X157957000Y-125922000D02*
X157957000Y-124738000D01*
X158838000Y-122658000D02*
X158838000Y-121155000D01*
X158678000Y-122658000D02*
X158678000Y-121187000D01*
X157837000Y-122658000D02*
X157837000Y-121549000D01*
X159038000Y-126267000D02*
X159038000Y-124738000D01*
X157597000Y-122658000D02*
X157597000Y-121727000D01*
X157357000Y-122658000D02*
X157357000Y-121955000D01*
X158998000Y-122658000D02*
X158998000Y-121133000D01*
X158758000Y-126226000D02*
X158758000Y-124738000D01*
X158397000Y-126126000D02*
X158397000Y-124738000D01*
X158598000Y-126189000D02*
X158598000Y-124738000D01*
X158798000Y-122658000D02*
X158798000Y-121162000D01*
X158437000Y-122658000D02*
X158437000Y-121256000D01*
X156917000Y-124796000D02*
X156917000Y-122600000D01*
X157477000Y-122658000D02*
X157477000Y-121834000D01*
X157917000Y-122658000D02*
X157917000Y-121498000D01*
X158718000Y-122658000D02*
X158718000Y-121178000D01*
X158557000Y-126178000D02*
X158557000Y-124738000D01*
X158958000Y-122658000D02*
X158958000Y-121137000D01*
X157117000Y-122658000D02*
X157117000Y-122255000D01*
X157277000Y-122658000D02*
X157277000Y-122045000D01*
X156997000Y-122658000D02*
X156997000Y-122447000D01*
X158477000Y-126153000D02*
X158477000Y-124738000D01*
X158197000Y-126046000D02*
X158197000Y-124738000D01*
X158878000Y-122658000D02*
X158878000Y-121148000D01*
X159238000Y-126278000D02*
X159238000Y-121118000D01*
X158918000Y-126254000D02*
X158918000Y-124738000D01*
X158718000Y-126218000D02*
X158718000Y-124738000D01*
X158838000Y-126241000D02*
X158838000Y-124738000D01*
X157757000Y-125793000D02*
X157757000Y-124738000D01*
X158517000Y-122658000D02*
X158517000Y-121230000D01*
X158397000Y-122658000D02*
X158397000Y-121270000D01*
X157037000Y-125017000D02*
X157037000Y-124738000D01*
X157117000Y-125141000D02*
X157117000Y-124738000D01*
X157437000Y-122658000D02*
X157437000Y-121872000D01*
X158117000Y-126008000D02*
X158117000Y-124738000D01*
X157157000Y-125198000D02*
X157157000Y-124738000D01*
X158598000Y-122658000D02*
X158598000Y-121207000D01*
X157717000Y-122658000D02*
X157717000Y-121633000D01*
X157077000Y-122658000D02*
X157077000Y-122315000D01*
X158237000Y-126063000D02*
X158237000Y-124738000D01*
X157357000Y-125441000D02*
X157357000Y-124738000D01*
X158157000Y-126027000D02*
X158157000Y-124738000D01*
X157317000Y-122658000D02*
X157317000Y-121999000D01*
X157637000Y-122658000D02*
X157637000Y-121694000D01*
X157877000Y-122658000D02*
X157877000Y-121523000D01*
X158357000Y-126112000D02*
X158357000Y-124738000D01*
X157477000Y-125562000D02*
X157477000Y-124738000D01*
X157677000Y-122658000D02*
X157677000Y-121663000D01*
X158918000Y-122658000D02*
X158918000Y-121142000D01*
X157437000Y-125524000D02*
X157437000Y-124738000D01*
X156757000Y-124375000D02*
X156757000Y-123021000D01*
X158638000Y-126199000D02*
X158638000Y-124738000D01*
X158557000Y-122658000D02*
X158557000Y-121218000D01*
X158477000Y-122658000D02*
X158477000Y-121243000D01*
X156877000Y-124709000D02*
X156877000Y-122687000D01*
X158277000Y-122658000D02*
X158277000Y-121316000D01*
X157237000Y-125303000D02*
X157237000Y-124738000D01*
X158277000Y-126080000D02*
X158277000Y-124738000D01*
X159078000Y-126271000D02*
X159078000Y-121125000D01*
X157397000Y-122658000D02*
X157397000Y-121913000D01*
X158077000Y-122658000D02*
X158077000Y-121408000D01*
X157517000Y-125599000D02*
X157517000Y-124738000D01*
X158037000Y-122658000D02*
X158037000Y-121430000D01*
X156717000Y-124216000D02*
X156717000Y-123180000D01*
X158798000Y-126234000D02*
X158798000Y-124738000D01*
X158998000Y-126263000D02*
X158998000Y-124738000D01*
X156677000Y-123982000D02*
X156677000Y-123414000D01*
X159158000Y-126276000D02*
X159158000Y-121120000D01*
X157997000Y-122658000D02*
X157997000Y-121451000D01*
X159198000Y-126277000D02*
X159198000Y-121119000D01*
X158037000Y-125966000D02*
X158037000Y-124738000D01*
X159038000Y-122658000D02*
X159038000Y-121129000D01*
X156997000Y-124949000D02*
X156997000Y-124738000D01*
X157877000Y-125873000D02*
X157877000Y-124738000D01*
X157277000Y-125351000D02*
X157277000Y-124738000D01*
X158317000Y-126096000D02*
X158317000Y-124738000D01*
X158958000Y-126259000D02*
X158958000Y-124738000D01*
X158157000Y-122658000D02*
X158157000Y-121369000D01*
X158117000Y-122658000D02*
X158117000Y-121388000D01*
X158878000Y-126248000D02*
X158878000Y-124738000D01*
X158237000Y-122658000D02*
X158237000Y-121333000D01*
X157157000Y-122658000D02*
X157157000Y-122198000D01*
X158638000Y-122658000D02*
X158638000Y-121197000D01*
X156837000Y-124613000D02*
X156837000Y-122783000D01*
X157317000Y-125397000D02*
X157317000Y-124738000D01*
X158678000Y-126209000D02*
X158678000Y-124738000D01*
X158197000Y-122658000D02*
X158197000Y-121350000D01*
X157037000Y-122658000D02*
X157037000Y-122379000D01*
X158758000Y-122658000D02*
X158758000Y-121170000D01*
X161832775Y-125423000D02*
X161832775Y-124923000D01*
X157597000Y-125669000D02*
X157597000Y-124738000D01*
X157517000Y-122658000D02*
X157517000Y-121797000D01*
X157757000Y-122658000D02*
X157757000Y-121603000D01*
X157917000Y-125898000D02*
X157917000Y-124738000D01*
X158437000Y-126140000D02*
X158437000Y-124738000D01*
X157797000Y-122658000D02*
X157797000Y-121576000D01*
X158517000Y-126166000D02*
X158517000Y-124738000D01*
X161898000Y-123698000D02*
G75*
G03*
X161898000Y-123698000I-2620000J0D01*
G01*
%TO.C,C8*%
X176540000Y-70289000D02*
X177898000Y-70289000D01*
X173847000Y-69249000D02*
X174460000Y-69249000D01*
X172950000Y-70850000D02*
X174460000Y-70850000D01*
X173135000Y-70209000D02*
X174460000Y-70209000D01*
X172920000Y-71210000D02*
X178080000Y-71210000D01*
X172931000Y-71010000D02*
X174460000Y-71010000D01*
X176540000Y-69969000D02*
X177747000Y-69969000D01*
X176540000Y-69689000D02*
X177565000Y-69689000D01*
X173152000Y-70169000D02*
X174460000Y-70169000D01*
X176540000Y-69769000D02*
X177622000Y-69769000D01*
X172944000Y-70890000D02*
X174460000Y-70890000D01*
X176540000Y-70850000D02*
X178050000Y-70850000D01*
X176540000Y-70369000D02*
X177928000Y-70369000D01*
X172957000Y-70810000D02*
X174460000Y-70810000D01*
X175216000Y-68649000D02*
X175784000Y-68649000D01*
X174489000Y-68849000D02*
X176511000Y-68849000D01*
X173801000Y-69289000D02*
X174460000Y-69289000D01*
X176540000Y-69089000D02*
X176943000Y-69089000D01*
X176540000Y-69849000D02*
X177675000Y-69849000D01*
X176540000Y-70650000D02*
X178011000Y-70650000D01*
X174823000Y-68729000D02*
X176177000Y-68729000D01*
X176540000Y-70169000D02*
X177848000Y-70169000D01*
X174117000Y-69049000D02*
X174460000Y-69049000D01*
X176540000Y-70810000D02*
X178043000Y-70810000D01*
X176540000Y-70329000D02*
X177914000Y-70329000D01*
X176540000Y-69049000D02*
X176883000Y-69049000D01*
X176540000Y-70249000D02*
X177882000Y-70249000D01*
X174322000Y-68929000D02*
X176678000Y-68929000D01*
X172972000Y-70730000D02*
X174460000Y-70730000D01*
X173118000Y-70249000D02*
X174460000Y-70249000D01*
X173020000Y-70529000D02*
X174460000Y-70529000D01*
X173300000Y-69889000D02*
X174460000Y-69889000D01*
X176540000Y-70610000D02*
X178001000Y-70610000D01*
X172939000Y-70930000D02*
X174460000Y-70930000D01*
X176540000Y-70209000D02*
X177865000Y-70209000D01*
X173895000Y-69209000D02*
X174460000Y-69209000D01*
X176540000Y-69609000D02*
X177504000Y-69609000D01*
X174982000Y-68689000D02*
X176018000Y-68689000D01*
X176540000Y-69569000D02*
X177471000Y-69569000D01*
X176540000Y-69489000D02*
X177401000Y-69489000D01*
X176540000Y-70770000D02*
X178036000Y-70770000D01*
X176540000Y-70930000D02*
X178061000Y-70930000D01*
X176540000Y-69409000D02*
X177326000Y-69409000D01*
X172921000Y-71170000D02*
X178079000Y-71170000D01*
X173715000Y-69369000D02*
X174460000Y-69369000D01*
X173496000Y-69609000D02*
X174460000Y-69609000D01*
X176540000Y-70690000D02*
X178020000Y-70690000D01*
X176540000Y-69209000D02*
X177105000Y-69209000D01*
X176540000Y-69809000D02*
X177649000Y-69809000D01*
X172924000Y-71090000D02*
X178076000Y-71090000D01*
X176540000Y-69729000D02*
X177595000Y-69729000D01*
X172920000Y-71250000D02*
X178080000Y-71250000D01*
X176540000Y-70730000D02*
X178028000Y-70730000D01*
X173465000Y-69649000D02*
X174460000Y-69649000D01*
X173253000Y-69969000D02*
X174460000Y-69969000D01*
X172964000Y-70770000D02*
X174460000Y-70770000D01*
X174249000Y-68969000D02*
X174460000Y-68969000D01*
X176540000Y-70009000D02*
X177768000Y-70009000D01*
X173435000Y-69689000D02*
X174460000Y-69689000D01*
X176540000Y-70409000D02*
X177942000Y-70409000D01*
X176540000Y-70570000D02*
X177991000Y-70570000D01*
X173072000Y-70369000D02*
X174460000Y-70369000D01*
X176540000Y-69529000D02*
X177437000Y-69529000D01*
X173086000Y-70329000D02*
X174460000Y-70329000D01*
X176540000Y-70529000D02*
X177980000Y-70529000D01*
X172989000Y-70650000D02*
X174460000Y-70650000D01*
X173636000Y-69449000D02*
X174460000Y-69449000D01*
X172999000Y-70610000D02*
X174460000Y-70610000D01*
X173325000Y-69849000D02*
X174460000Y-69849000D01*
X174000000Y-69129000D02*
X174460000Y-69129000D01*
X174402000Y-68889000D02*
X176598000Y-68889000D01*
X173171000Y-70129000D02*
X174460000Y-70129000D01*
X173946000Y-69169000D02*
X174460000Y-69169000D01*
X173009000Y-70570000D02*
X174460000Y-70570000D01*
X176540000Y-69009000D02*
X176819000Y-69009000D01*
X173775000Y-73804775D02*
X174275000Y-73804775D01*
X172922000Y-71130000D02*
X178078000Y-71130000D01*
X176540000Y-70129000D02*
X177829000Y-70129000D01*
X172935000Y-70970000D02*
X174460000Y-70970000D01*
X176540000Y-69449000D02*
X177364000Y-69449000D01*
X173102000Y-70289000D02*
X174460000Y-70289000D01*
X173276000Y-69929000D02*
X174460000Y-69929000D01*
X176540000Y-69329000D02*
X177243000Y-69329000D01*
X176540000Y-70890000D02*
X178056000Y-70890000D01*
X176540000Y-68969000D02*
X176751000Y-68969000D01*
X176540000Y-70489000D02*
X177968000Y-70489000D01*
X173210000Y-70049000D02*
X174460000Y-70049000D01*
X173045000Y-70449000D02*
X174460000Y-70449000D01*
X173674000Y-69409000D02*
X174460000Y-69409000D01*
X176540000Y-69889000D02*
X177700000Y-69889000D01*
X174695000Y-68769000D02*
X176305000Y-68769000D01*
X174181000Y-69009000D02*
X174460000Y-69009000D01*
X176540000Y-69289000D02*
X177199000Y-69289000D01*
X173563000Y-69529000D02*
X174460000Y-69529000D01*
X173232000Y-70009000D02*
X174460000Y-70009000D01*
X176540000Y-70089000D02*
X177810000Y-70089000D01*
X173032000Y-70489000D02*
X174460000Y-70489000D01*
X176540000Y-71010000D02*
X178069000Y-71010000D01*
X176540000Y-69369000D02*
X177285000Y-69369000D01*
X172927000Y-71050000D02*
X178073000Y-71050000D01*
X173405000Y-69729000D02*
X174460000Y-69729000D01*
X173757000Y-69329000D02*
X174460000Y-69329000D01*
X174025000Y-74054775D02*
X174025000Y-73554775D01*
X173190000Y-70089000D02*
X174460000Y-70089000D01*
X174585000Y-68809000D02*
X176415000Y-68809000D01*
X173351000Y-69809000D02*
X174460000Y-69809000D01*
X172980000Y-70690000D02*
X174460000Y-70690000D01*
X176540000Y-69249000D02*
X177153000Y-69249000D01*
X176540000Y-70449000D02*
X177955000Y-70449000D01*
X176540000Y-69129000D02*
X177000000Y-69129000D01*
X173058000Y-70409000D02*
X174460000Y-70409000D01*
X176540000Y-69929000D02*
X177724000Y-69929000D01*
X176540000Y-70049000D02*
X177790000Y-70049000D01*
X176540000Y-69649000D02*
X177535000Y-69649000D01*
X176540000Y-69169000D02*
X177054000Y-69169000D01*
X173599000Y-69489000D02*
X174460000Y-69489000D01*
X173378000Y-69769000D02*
X174460000Y-69769000D01*
X173529000Y-69569000D02*
X174460000Y-69569000D01*
X176540000Y-70970000D02*
X178065000Y-70970000D01*
X174057000Y-69089000D02*
X174460000Y-69089000D01*
X178120000Y-71250000D02*
G75*
G03*
X178120000Y-71250000I-2620000J0D01*
G01*
%TO.C,C11*%
X176281000Y-93230000D02*
X176281000Y-98770000D01*
X174321000Y-91475000D02*
X174321000Y-94759000D01*
X172440000Y-90938000D02*
X172440000Y-101062000D01*
X174721000Y-91702000D02*
X174721000Y-94759000D01*
X175761000Y-92564000D02*
X175761000Y-99436000D01*
X175161000Y-97241000D02*
X175161000Y-99989000D01*
X175721000Y-97241000D02*
X175721000Y-99478000D01*
X175081000Y-97241000D02*
X175081000Y-100050000D01*
X174561000Y-97241000D02*
X174561000Y-100395000D01*
X172400000Y-90935000D02*
X172400000Y-101065000D01*
X175281000Y-92108000D02*
X175281000Y-94759000D01*
X177041000Y-95138000D02*
X177041000Y-96862000D01*
X173961000Y-97241000D02*
X173961000Y-100690000D01*
X172120000Y-90921000D02*
X172120000Y-101079000D01*
X176481000Y-93561000D02*
X176481000Y-98439000D01*
X175361000Y-97241000D02*
X175361000Y-99824000D01*
X172480000Y-90942000D02*
X172480000Y-101058000D01*
X173761000Y-91232000D02*
X173761000Y-94759000D01*
X174961000Y-97241000D02*
X174961000Y-100138000D01*
X176801000Y-94258000D02*
X176801000Y-97742000D01*
X174201000Y-97241000D02*
X174201000Y-100584000D01*
X174001000Y-97241000D02*
X174001000Y-100674000D01*
X173081000Y-91035000D02*
X173081000Y-100965000D01*
X173921000Y-97241000D02*
X173921000Y-100707000D01*
X173801000Y-91246000D02*
X173801000Y-94759000D01*
X173281000Y-97241000D02*
X173281000Y-100918000D01*
X174041000Y-97241000D02*
X174041000Y-100657000D01*
X174841000Y-91779000D02*
X174841000Y-94759000D01*
X174921000Y-91834000D02*
X174921000Y-94759000D01*
X174641000Y-97241000D02*
X174641000Y-100347000D01*
X174481000Y-91560000D02*
X174481000Y-94759000D01*
X175201000Y-97241000D02*
X175201000Y-99957000D01*
X175681000Y-97241000D02*
X175681000Y-99520000D01*
X172600000Y-90955000D02*
X172600000Y-101045000D01*
X173881000Y-91277000D02*
X173881000Y-94759000D01*
X172560000Y-90950000D02*
X172560000Y-101050000D01*
X176881000Y-94490000D02*
X176881000Y-97510000D01*
X176001000Y-92844000D02*
X176001000Y-99156000D01*
X173041000Y-91026000D02*
X173041000Y-100974000D01*
X174721000Y-97241000D02*
X174721000Y-100298000D01*
X174801000Y-91753000D02*
X174801000Y-94759000D01*
X173001000Y-91018000D02*
X173001000Y-100982000D01*
X172680000Y-90965000D02*
X172680000Y-101035000D01*
X172520000Y-90946000D02*
X172520000Y-101054000D01*
X176681000Y-93963000D02*
X176681000Y-98037000D01*
X173481000Y-91138000D02*
X173481000Y-94759000D01*
X175321000Y-92142000D02*
X175321000Y-94759000D01*
X173681000Y-91203000D02*
X173681000Y-94759000D01*
X175401000Y-92211000D02*
X175401000Y-94759000D01*
X174081000Y-97241000D02*
X174081000Y-100639000D01*
X174681000Y-91677000D02*
X174681000Y-94759000D01*
X176401000Y-93421000D02*
X176401000Y-98579000D01*
X173441000Y-91126000D02*
X173441000Y-94759000D01*
X174961000Y-91862000D02*
X174961000Y-94759000D01*
X175001000Y-97241000D02*
X175001000Y-100110000D01*
X173841000Y-91262000D02*
X173841000Y-94759000D01*
X175321000Y-97241000D02*
X175321000Y-99858000D01*
X173201000Y-91062000D02*
X173201000Y-100938000D01*
X176721000Y-94056000D02*
X176721000Y-97944000D01*
X174361000Y-97241000D02*
X174361000Y-100504000D01*
X177081000Y-95401000D02*
X177081000Y-96599000D01*
X174441000Y-97241000D02*
X174441000Y-100462000D01*
X176081000Y-92946000D02*
X176081000Y-99054000D01*
X176841000Y-94370000D02*
X176841000Y-97630000D01*
X174321000Y-97241000D02*
X174321000Y-100525000D01*
X175721000Y-92522000D02*
X175721000Y-94759000D01*
X176201000Y-93111000D02*
X176201000Y-98889000D01*
X174081000Y-91361000D02*
X174081000Y-94759000D01*
X176361000Y-93355000D02*
X176361000Y-98645000D01*
X172200000Y-90923000D02*
X172200000Y-101077000D01*
X173281000Y-91082000D02*
X173281000Y-94759000D01*
X173401000Y-91115000D02*
X173401000Y-94759000D01*
X173361000Y-97241000D02*
X173361000Y-100897000D01*
X176601000Y-93791000D02*
X176601000Y-98209000D01*
X174801000Y-97241000D02*
X174801000Y-100247000D01*
X173721000Y-91217000D02*
X173721000Y-94759000D01*
X173361000Y-91103000D02*
X173361000Y-94759000D01*
X175801000Y-92608000D02*
X175801000Y-99392000D01*
X175841000Y-92653000D02*
X175841000Y-99347000D01*
X174761000Y-97241000D02*
X174761000Y-100273000D01*
X176321000Y-93291000D02*
X176321000Y-98709000D01*
X173921000Y-91293000D02*
X173921000Y-94759000D01*
X177001000Y-94938000D02*
X177001000Y-97062000D01*
X175041000Y-91920000D02*
X175041000Y-94759000D01*
X172000000Y-90920000D02*
X172000000Y-101080000D01*
X173841000Y-97241000D02*
X173841000Y-100738000D01*
X175201000Y-92043000D02*
X175201000Y-94759000D01*
X175641000Y-92439000D02*
X175641000Y-94759000D01*
X174241000Y-91436000D02*
X174241000Y-94759000D01*
X175521000Y-92321000D02*
X175521000Y-94759000D01*
X174681000Y-97241000D02*
X174681000Y-100323000D01*
X174041000Y-91343000D02*
X174041000Y-94759000D01*
X174161000Y-91397000D02*
X174161000Y-94759000D01*
X174561000Y-91605000D02*
X174561000Y-94759000D01*
X175561000Y-97241000D02*
X175561000Y-99640000D01*
X174601000Y-91629000D02*
X174601000Y-94759000D01*
X172921000Y-91003000D02*
X172921000Y-100997000D01*
X166520354Y-93125000D02*
X167520354Y-93125000D01*
X176441000Y-93490000D02*
X176441000Y-98510000D01*
X175361000Y-92176000D02*
X175361000Y-94759000D01*
X176961000Y-94770000D02*
X176961000Y-97230000D01*
X176161000Y-93055000D02*
X176161000Y-98945000D01*
X175961000Y-92794000D02*
X175961000Y-99206000D01*
X172360000Y-90932000D02*
X172360000Y-101068000D01*
X174001000Y-91326000D02*
X174001000Y-94759000D01*
X172640000Y-90960000D02*
X172640000Y-101040000D01*
X174521000Y-97241000D02*
X174521000Y-100417000D01*
X172080000Y-90920000D02*
X172080000Y-101080000D01*
X173601000Y-97241000D02*
X173601000Y-100824000D01*
X174641000Y-91653000D02*
X174641000Y-94759000D01*
X175001000Y-91890000D02*
X175001000Y-94759000D01*
X173721000Y-97241000D02*
X173721000Y-100783000D01*
X174441000Y-91538000D02*
X174441000Y-94759000D01*
X173441000Y-97241000D02*
X173441000Y-100874000D01*
X172761000Y-90976000D02*
X172761000Y-101024000D01*
X173401000Y-97241000D02*
X173401000Y-100885000D01*
X172721000Y-90970000D02*
X172721000Y-101030000D01*
X174241000Y-97241000D02*
X174241000Y-100564000D01*
X175481000Y-97241000D02*
X175481000Y-99716000D01*
X172240000Y-90925000D02*
X172240000Y-101075000D01*
X175561000Y-92360000D02*
X175561000Y-94759000D01*
X174121000Y-91379000D02*
X174121000Y-94759000D01*
X173481000Y-97241000D02*
X173481000Y-100862000D01*
X173681000Y-97241000D02*
X173681000Y-100797000D01*
X174281000Y-91455000D02*
X174281000Y-94759000D01*
X174201000Y-91416000D02*
X174201000Y-94759000D01*
X175881000Y-92699000D02*
X175881000Y-99301000D01*
X173521000Y-91150000D02*
X173521000Y-94759000D01*
X173801000Y-97241000D02*
X173801000Y-100754000D01*
X174121000Y-97241000D02*
X174121000Y-100621000D01*
X175921000Y-92746000D02*
X175921000Y-99254000D01*
X176561000Y-93711000D02*
X176561000Y-98289000D01*
X174881000Y-97241000D02*
X174881000Y-100194000D01*
X174401000Y-97241000D02*
X174401000Y-100483000D01*
X174841000Y-97241000D02*
X174841000Y-100221000D01*
X173601000Y-91176000D02*
X173601000Y-94759000D01*
X173121000Y-91044000D02*
X173121000Y-100956000D01*
X174921000Y-97241000D02*
X174921000Y-100166000D01*
X172160000Y-90922000D02*
X172160000Y-101078000D01*
X175481000Y-92284000D02*
X175481000Y-94759000D01*
X175401000Y-97241000D02*
X175401000Y-99789000D01*
X173641000Y-97241000D02*
X173641000Y-100811000D01*
X175121000Y-97241000D02*
X175121000Y-100020000D01*
X173881000Y-97241000D02*
X173881000Y-100723000D01*
X175641000Y-97241000D02*
X175641000Y-99561000D01*
X174281000Y-97241000D02*
X174281000Y-100545000D01*
X175441000Y-97241000D02*
X175441000Y-99753000D01*
X175681000Y-92480000D02*
X175681000Y-94759000D01*
X175281000Y-97241000D02*
X175281000Y-99892000D01*
X173321000Y-97241000D02*
X173321000Y-100907000D01*
X175601000Y-92399000D02*
X175601000Y-94759000D01*
X173961000Y-91310000D02*
X173961000Y-94759000D01*
X172881000Y-90996000D02*
X172881000Y-101004000D01*
X173241000Y-91072000D02*
X173241000Y-100928000D01*
X173521000Y-97241000D02*
X173521000Y-100850000D01*
X172320000Y-90930000D02*
X172320000Y-101070000D01*
X175081000Y-91950000D02*
X175081000Y-94759000D01*
X176041000Y-92894000D02*
X176041000Y-99106000D01*
X167020354Y-92625000D02*
X167020354Y-93625000D01*
X175121000Y-91980000D02*
X175121000Y-94759000D01*
X172280000Y-90927000D02*
X172280000Y-101073000D01*
X176641000Y-93875000D02*
X176641000Y-98125000D01*
X174481000Y-97241000D02*
X174481000Y-100440000D01*
X174601000Y-97241000D02*
X174601000Y-100371000D01*
X174881000Y-91806000D02*
X174881000Y-94759000D01*
X173161000Y-91053000D02*
X173161000Y-100947000D01*
X174161000Y-97241000D02*
X174161000Y-100603000D01*
X175241000Y-97241000D02*
X175241000Y-99925000D01*
X174401000Y-91517000D02*
X174401000Y-94759000D01*
X173761000Y-97241000D02*
X173761000Y-100768000D01*
X176121000Y-93000000D02*
X176121000Y-99000000D01*
X173321000Y-91093000D02*
X173321000Y-94759000D01*
X173641000Y-91189000D02*
X173641000Y-94759000D01*
X172801000Y-90982000D02*
X172801000Y-101018000D01*
X174521000Y-91583000D02*
X174521000Y-94759000D01*
X175601000Y-97241000D02*
X175601000Y-99601000D01*
X175041000Y-97241000D02*
X175041000Y-100080000D01*
X176521000Y-93635000D02*
X176521000Y-98365000D01*
X176921000Y-94622000D02*
X176921000Y-97378000D01*
X172961000Y-91010000D02*
X172961000Y-100990000D01*
X173561000Y-97241000D02*
X173561000Y-100837000D01*
X172040000Y-90920000D02*
X172040000Y-101080000D01*
X174761000Y-91727000D02*
X174761000Y-94759000D01*
X176241000Y-93170000D02*
X176241000Y-98830000D01*
X174361000Y-91496000D02*
X174361000Y-94759000D01*
X175521000Y-97241000D02*
X175521000Y-99679000D01*
X173561000Y-91163000D02*
X173561000Y-94759000D01*
X175241000Y-92075000D02*
X175241000Y-94759000D01*
X176761000Y-94154000D02*
X176761000Y-97846000D01*
X175441000Y-92247000D02*
X175441000Y-94759000D01*
X172841000Y-90989000D02*
X172841000Y-101011000D01*
X175161000Y-92011000D02*
X175161000Y-94759000D01*
X177120000Y-96000000D02*
G75*
G03*
X177120000Y-96000000I-5120000J0D01*
G01*
%TO.C,J1*%
X160600000Y-72900000D02*
X157900000Y-72900000D01*
X167100000Y-58200000D02*
X167100000Y-72900000D01*
X157900000Y-72900000D02*
X157900000Y-71000000D01*
X157900000Y-58200000D02*
X167100000Y-58200000D01*
X167100000Y-72900000D02*
X164500000Y-72900000D01*
X157900000Y-67000000D02*
X157900000Y-58200000D01*
%TO.C,R1*%
X171418000Y-126008000D02*
X171418000Y-126338000D01*
X171418000Y-126338000D02*
X164878000Y-126338000D01*
X171418000Y-123598000D02*
X164878000Y-123598000D01*
X164878000Y-126338000D02*
X164878000Y-126008000D01*
X171418000Y-123928000D02*
X171418000Y-123598000D01*
X164878000Y-123598000D02*
X164878000Y-123928000D01*
%TO.C,R2*%
X171418000Y-120626000D02*
X171418000Y-120296000D01*
X171418000Y-122706000D02*
X171418000Y-123036000D01*
X164878000Y-123036000D02*
X164878000Y-122706000D01*
X164878000Y-120296000D02*
X164878000Y-120626000D01*
X171418000Y-123036000D02*
X164878000Y-123036000D01*
X171418000Y-120296000D02*
X164878000Y-120296000D01*
%TO.C,R6*%
X159412000Y-93504000D02*
X159742000Y-93504000D01*
X162152000Y-100044000D02*
X162152000Y-93504000D01*
X159412000Y-100044000D02*
X159412000Y-93504000D01*
X162152000Y-93504000D02*
X161822000Y-93504000D01*
X161822000Y-100044000D02*
X162152000Y-100044000D01*
X159742000Y-100044000D02*
X159412000Y-100044000D01*
%TO.C,R7*%
X165708000Y-93504000D02*
X165378000Y-93504000D01*
X162968000Y-93504000D02*
X163298000Y-93504000D01*
X163298000Y-100044000D02*
X162968000Y-100044000D01*
X165378000Y-100044000D02*
X165708000Y-100044000D01*
X162968000Y-100044000D02*
X162968000Y-93504000D01*
X165708000Y-100044000D02*
X165708000Y-93504000D01*
%TO.C,J3*%
X117286000Y-64000000D02*
G75*
G03*
X117286000Y-64000000I-2286000J0D01*
G01*
%TO.C,J4*%
X117286000Y-132000000D02*
G75*
G03*
X117286000Y-132000000I-2286000J0D01*
G01*
%TO.C,J5*%
X178286000Y-132000000D02*
G75*
G03*
X178286000Y-132000000I-2286000J0D01*
G01*
%TO.C,J6*%
X178286000Y-64000000D02*
G75*
G03*
X178286000Y-64000000I-2286000J0D01*
G01*
%TO.C,U4*%
X177080000Y-87160000D02*
X161190000Y-87160000D01*
X177080000Y-76920000D02*
X177080000Y-87160000D01*
X161190000Y-76920000D02*
X161190000Y-87160000D01*
X161190000Y-82040000D02*
X158650000Y-82040000D01*
X177080000Y-76920000D02*
X161190000Y-76920000D01*
X161190000Y-84580000D02*
X158650000Y-84580000D01*
X161190000Y-79500000D02*
X158650000Y-79500000D01*
%TO.C,C6*%
X171370000Y-73870000D02*
X171370000Y-68630000D01*
X168630000Y-73870000D02*
X168630000Y-68630000D01*
X168630000Y-68630000D02*
X171370000Y-68630000D01*
X168630000Y-73870000D02*
X171370000Y-73870000D01*
%TO.C,R9*%
X166338000Y-88292000D02*
X159798000Y-88292000D01*
X159798000Y-91032000D02*
X159798000Y-90702000D01*
X166338000Y-91032000D02*
X159798000Y-91032000D01*
X166338000Y-88622000D02*
X166338000Y-88292000D01*
X159798000Y-88292000D02*
X159798000Y-88622000D01*
X166338000Y-90702000D02*
X166338000Y-91032000D01*
%TO.C,C10*%
X176870000Y-120630000D02*
X174130000Y-120630000D01*
X174130000Y-120630000D02*
X174130000Y-125870000D01*
X176870000Y-125870000D02*
X174130000Y-125870000D01*
X176870000Y-120630000D02*
X176870000Y-125870000D01*
%TO.C,J8*%
X158182000Y-119270000D02*
X160842000Y-119270000D01*
X160842000Y-106510000D02*
X160842000Y-119270000D01*
X158182000Y-105240000D02*
X158182000Y-103910000D01*
X158182000Y-103910000D02*
X159512000Y-103910000D01*
X158182000Y-106510000D02*
X158182000Y-119270000D01*
X158182000Y-106510000D02*
X160842000Y-106510000D01*
D12*
%TO.C,J2*%
X138520000Y-62185000D02*
X148520000Y-62185000D01*
X148520000Y-72185000D02*
X138520000Y-72185000D01*
X148520000Y-62185000D02*
X148520000Y-72185000D01*
X138520000Y-72185000D02*
X138520000Y-62185000D01*
D11*
%TO.C,P1*%
X164100000Y-102700000D02*
X177100000Y-102700000D01*
X177100000Y-118900000D02*
X177100000Y-102700000D01*
X164100000Y-118900000D02*
X177100000Y-118900000D01*
X164100000Y-118900000D02*
X164100000Y-102700000D01*
D12*
%TO.C,UB1*%
X136652000Y-126746000D02*
X154432000Y-126746000D01*
X136652000Y-73406000D02*
X154432000Y-73406000D01*
X154432000Y-126746000D02*
X154432000Y-73406000D01*
X136652000Y-73406000D02*
X136652000Y-126746000D01*
D11*
%TO.C,C7*%
X124958000Y-101599000D02*
X125994000Y-101599000D01*
X126516000Y-102839000D02*
X127700000Y-102839000D01*
X124298000Y-101839000D02*
X126654000Y-101839000D01*
X126516000Y-103199000D02*
X127874000Y-103199000D01*
X126516000Y-103560000D02*
X127987000Y-103560000D01*
X123472000Y-102519000D02*
X124436000Y-102519000D01*
X126516000Y-102879000D02*
X127723000Y-102879000D01*
X126516000Y-102599000D02*
X127541000Y-102599000D01*
X122940000Y-103680000D02*
X124436000Y-103680000D01*
X123078000Y-103199000D02*
X124436000Y-103199000D01*
X126516000Y-102159000D02*
X127129000Y-102159000D01*
X122898000Y-104040000D02*
X128054000Y-104040000D01*
X126516000Y-103760000D02*
X128026000Y-103760000D01*
X122900000Y-104000000D02*
X128052000Y-104000000D01*
X123048000Y-103279000D02*
X124436000Y-103279000D01*
X123301000Y-102759000D02*
X124436000Y-102759000D01*
X126516000Y-102679000D02*
X127598000Y-102679000D01*
X126516000Y-102799000D02*
X127676000Y-102799000D01*
X124378000Y-101799000D02*
X126574000Y-101799000D01*
X123208000Y-102919000D02*
X124436000Y-102919000D01*
X123111000Y-103119000D02*
X124436000Y-103119000D01*
X123505000Y-102479000D02*
X124436000Y-102479000D01*
X126516000Y-103399000D02*
X127944000Y-103399000D01*
X123229000Y-102879000D02*
X124436000Y-102879000D01*
X123021000Y-103359000D02*
X124436000Y-103359000D01*
X126516000Y-103439000D02*
X127956000Y-103439000D01*
X123276000Y-102799000D02*
X124436000Y-102799000D01*
X126516000Y-103720000D02*
X128019000Y-103720000D01*
X126516000Y-102519000D02*
X127480000Y-102519000D01*
X126516000Y-103039000D02*
X127805000Y-103039000D01*
X126516000Y-102479000D02*
X127447000Y-102479000D01*
X123733000Y-102239000D02*
X124436000Y-102239000D01*
X123612000Y-102359000D02*
X124436000Y-102359000D01*
X126516000Y-102559000D02*
X127511000Y-102559000D01*
X123128000Y-103079000D02*
X124436000Y-103079000D01*
X126516000Y-102439000D02*
X127413000Y-102439000D01*
X126516000Y-101919000D02*
X126795000Y-101919000D01*
X122907000Y-103920000D02*
X124436000Y-103920000D01*
X122903000Y-103960000D02*
X128049000Y-103960000D01*
X126516000Y-102279000D02*
X127261000Y-102279000D01*
X126516000Y-103239000D02*
X127890000Y-103239000D01*
X126516000Y-102759000D02*
X127651000Y-102759000D01*
X126516000Y-103319000D02*
X127918000Y-103319000D01*
X123186000Y-102959000D02*
X124436000Y-102959000D01*
X126516000Y-103880000D02*
X128041000Y-103880000D01*
X126516000Y-102359000D02*
X127340000Y-102359000D01*
X122965000Y-103560000D02*
X124436000Y-103560000D01*
X126516000Y-103640000D02*
X128004000Y-103640000D01*
X126516000Y-102919000D02*
X127744000Y-102919000D01*
X126516000Y-103920000D02*
X128045000Y-103920000D01*
X123976000Y-102039000D02*
X124436000Y-102039000D01*
X126516000Y-103279000D02*
X127904000Y-103279000D01*
X126516000Y-102239000D02*
X127219000Y-102239000D01*
X123166000Y-102999000D02*
X124436000Y-102999000D01*
X122956000Y-103600000D02*
X124436000Y-103600000D01*
X123691000Y-102279000D02*
X124436000Y-102279000D01*
X122920000Y-103800000D02*
X124436000Y-103800000D01*
X126516000Y-101879000D02*
X126727000Y-101879000D01*
X123871000Y-102119000D02*
X124436000Y-102119000D01*
X123252000Y-102839000D02*
X124436000Y-102839000D01*
X126516000Y-102039000D02*
X126976000Y-102039000D01*
X124465000Y-101759000D02*
X126487000Y-101759000D01*
X124093000Y-101959000D02*
X124436000Y-101959000D01*
X122911000Y-103880000D02*
X124436000Y-103880000D01*
X122896000Y-104120000D02*
X128056000Y-104120000D01*
X123062000Y-103239000D02*
X124436000Y-103239000D01*
X126516000Y-101999000D02*
X126919000Y-101999000D01*
X123381000Y-102639000D02*
X124436000Y-102639000D01*
X123034000Y-103319000D02*
X124436000Y-103319000D01*
X126516000Y-103800000D02*
X128032000Y-103800000D01*
X123094000Y-103159000D02*
X124436000Y-103159000D01*
X123441000Y-102559000D02*
X124436000Y-102559000D01*
X123922000Y-102079000D02*
X124436000Y-102079000D01*
X126516000Y-103159000D02*
X127858000Y-103159000D01*
X126516000Y-102119000D02*
X127081000Y-102119000D01*
X123354000Y-102679000D02*
X124436000Y-102679000D01*
X126516000Y-102639000D02*
X127571000Y-102639000D01*
X126516000Y-102959000D02*
X127766000Y-102959000D01*
X122933000Y-103720000D02*
X124436000Y-103720000D01*
X126516000Y-103600000D02*
X127996000Y-103600000D01*
X125192000Y-101559000D02*
X125760000Y-101559000D01*
X126516000Y-103359000D02*
X127931000Y-103359000D01*
X124671000Y-101679000D02*
X126281000Y-101679000D01*
X123327000Y-102719000D02*
X124436000Y-102719000D01*
X122948000Y-103640000D02*
X124436000Y-103640000D01*
X122975000Y-103520000D02*
X124436000Y-103520000D01*
X124157000Y-101919000D02*
X124436000Y-101919000D01*
X123147000Y-103039000D02*
X124436000Y-103039000D01*
X126516000Y-102199000D02*
X127175000Y-102199000D01*
X126516000Y-103520000D02*
X127977000Y-103520000D01*
X126516000Y-102079000D02*
X127030000Y-102079000D01*
X124799000Y-101639000D02*
X126153000Y-101639000D01*
X126516000Y-103480000D02*
X127967000Y-103480000D01*
X122985000Y-103480000D02*
X124436000Y-103480000D01*
X126516000Y-103680000D02*
X128012000Y-103680000D01*
X124001000Y-106964775D02*
X124001000Y-106464775D01*
X126516000Y-101959000D02*
X126859000Y-101959000D01*
X126516000Y-103840000D02*
X128037000Y-103840000D01*
X122896000Y-104160000D02*
X128056000Y-104160000D01*
X123823000Y-102159000D02*
X124436000Y-102159000D01*
X126516000Y-103119000D02*
X127841000Y-103119000D01*
X126516000Y-102319000D02*
X127302000Y-102319000D01*
X122926000Y-103760000D02*
X124436000Y-103760000D01*
X122897000Y-104080000D02*
X128055000Y-104080000D01*
X124225000Y-101879000D02*
X124436000Y-101879000D01*
X123411000Y-102599000D02*
X124436000Y-102599000D01*
X123751000Y-106714775D02*
X124251000Y-106714775D01*
X126516000Y-102999000D02*
X127786000Y-102999000D01*
X123575000Y-102399000D02*
X124436000Y-102399000D01*
X126516000Y-102399000D02*
X127377000Y-102399000D01*
X122996000Y-103439000D02*
X124436000Y-103439000D01*
X123008000Y-103399000D02*
X124436000Y-103399000D01*
X123650000Y-102319000D02*
X124436000Y-102319000D01*
X122915000Y-103840000D02*
X124436000Y-103840000D01*
X123539000Y-102439000D02*
X124436000Y-102439000D01*
X126516000Y-102719000D02*
X127625000Y-102719000D01*
X126516000Y-103079000D02*
X127824000Y-103079000D01*
X124033000Y-101999000D02*
X124436000Y-101999000D01*
X124561000Y-101719000D02*
X126391000Y-101719000D01*
X123777000Y-102199000D02*
X124436000Y-102199000D01*
X128096000Y-104160000D02*
G75*
G03*
X128096000Y-104160000I-2620000J0D01*
G01*
%TO.C,JP4*%
X131420000Y-88900000D02*
X131420000Y-87570000D01*
X131420000Y-90170000D02*
X134080000Y-90170000D01*
X131420000Y-95310000D02*
X134080000Y-95310000D01*
X131420000Y-87570000D02*
X132750000Y-87570000D01*
X131420000Y-90170000D02*
X131420000Y-95310000D01*
X134080000Y-90170000D02*
X134080000Y-95310000D01*
%TO.C,C3*%
X129784000Y-103506000D02*
X131294000Y-103506000D01*
X133374000Y-102025000D02*
X134119000Y-102025000D01*
X129843000Y-103226000D02*
X131294000Y-103226000D01*
X133374000Y-103025000D02*
X134762000Y-103025000D01*
X131236000Y-101545000D02*
X133432000Y-101545000D01*
X130212000Y-102425000D02*
X131294000Y-102425000D01*
X129920000Y-102985000D02*
X131294000Y-102985000D01*
X133374000Y-102425000D02*
X134456000Y-102425000D01*
X131529000Y-101425000D02*
X133139000Y-101425000D01*
X131419000Y-101465000D02*
X133249000Y-101465000D01*
X133374000Y-103306000D02*
X134845000Y-103306000D01*
X133374000Y-102905000D02*
X134716000Y-102905000D01*
X133374000Y-101905000D02*
X133987000Y-101905000D01*
X130005000Y-102785000D02*
X131294000Y-102785000D01*
X130591000Y-101985000D02*
X131294000Y-101985000D01*
X133374000Y-103546000D02*
X134890000Y-103546000D01*
X133374000Y-102225000D02*
X134305000Y-102225000D01*
X133374000Y-102505000D02*
X134509000Y-102505000D01*
X130609000Y-106460775D02*
X131109000Y-106460775D01*
X133374000Y-103105000D02*
X134789000Y-103105000D01*
X129791000Y-103466000D02*
X131294000Y-103466000D01*
X133374000Y-101825000D02*
X133888000Y-101825000D01*
X133374000Y-102145000D02*
X134235000Y-102145000D01*
X129754000Y-103906000D02*
X134914000Y-103906000D01*
X133374000Y-102545000D02*
X134534000Y-102545000D01*
X129823000Y-103306000D02*
X131294000Y-103306000D01*
X131083000Y-101625000D02*
X131294000Y-101625000D01*
X133374000Y-102465000D02*
X134483000Y-102465000D01*
X130729000Y-101865000D02*
X131294000Y-101865000D01*
X129879000Y-103105000D02*
X131294000Y-103105000D01*
X129969000Y-102865000D02*
X131294000Y-102865000D01*
X129892000Y-103065000D02*
X131294000Y-103065000D01*
X133374000Y-102305000D02*
X134369000Y-102305000D01*
X130951000Y-101705000D02*
X131294000Y-101705000D01*
X133374000Y-102985000D02*
X134748000Y-102985000D01*
X130087000Y-102625000D02*
X131294000Y-102625000D01*
X129756000Y-103786000D02*
X134912000Y-103786000D01*
X130185000Y-102465000D02*
X131294000Y-102465000D01*
X129866000Y-103145000D02*
X131294000Y-103145000D01*
X131657000Y-101385000D02*
X133011000Y-101385000D01*
X129936000Y-102945000D02*
X131294000Y-102945000D01*
X129854000Y-103185000D02*
X131294000Y-103185000D01*
X133374000Y-102705000D02*
X134624000Y-102705000D01*
X129986000Y-102825000D02*
X131294000Y-102825000D01*
X129765000Y-103666000D02*
X131294000Y-103666000D01*
X129906000Y-103025000D02*
X131294000Y-103025000D01*
X129952000Y-102905000D02*
X131294000Y-102905000D01*
X130299000Y-102305000D02*
X131294000Y-102305000D01*
X133374000Y-103426000D02*
X134870000Y-103426000D01*
X130859000Y-106710775D02*
X130859000Y-106210775D01*
X129773000Y-103586000D02*
X131294000Y-103586000D01*
X133374000Y-102745000D02*
X134644000Y-102745000D01*
X133374000Y-102945000D02*
X134732000Y-102945000D01*
X133374000Y-102345000D02*
X134399000Y-102345000D01*
X133374000Y-103145000D02*
X134802000Y-103145000D01*
X131156000Y-101585000D02*
X133512000Y-101585000D01*
X129754000Y-103866000D02*
X134914000Y-103866000D01*
X130330000Y-102265000D02*
X131294000Y-102265000D01*
X129769000Y-103626000D02*
X131294000Y-103626000D01*
X133374000Y-103065000D02*
X134776000Y-103065000D01*
X133374000Y-102385000D02*
X134429000Y-102385000D01*
X129798000Y-103426000D02*
X131294000Y-103426000D01*
X130635000Y-101945000D02*
X131294000Y-101945000D01*
X132050000Y-101305000D02*
X132618000Y-101305000D01*
X133374000Y-103506000D02*
X134884000Y-103506000D01*
X130110000Y-102585000D02*
X131294000Y-102585000D01*
X129778000Y-103546000D02*
X131294000Y-103546000D01*
X133374000Y-102185000D02*
X134271000Y-102185000D01*
X133374000Y-102585000D02*
X134558000Y-102585000D01*
X133374000Y-103386000D02*
X134862000Y-103386000D01*
X133374000Y-101945000D02*
X134033000Y-101945000D01*
X129761000Y-103706000D02*
X134907000Y-103706000D01*
X133374000Y-101985000D02*
X134077000Y-101985000D01*
X133374000Y-103266000D02*
X134835000Y-103266000D01*
X130397000Y-102185000D02*
X131294000Y-102185000D01*
X130681000Y-101905000D02*
X131294000Y-101905000D01*
X133374000Y-103626000D02*
X134899000Y-103626000D01*
X133374000Y-103346000D02*
X134854000Y-103346000D01*
X133374000Y-102625000D02*
X134581000Y-102625000D01*
X133374000Y-103586000D02*
X134895000Y-103586000D01*
X133374000Y-102065000D02*
X134160000Y-102065000D01*
X133374000Y-103466000D02*
X134877000Y-103466000D01*
X129758000Y-103746000D02*
X134910000Y-103746000D01*
X130470000Y-102105000D02*
X131294000Y-102105000D01*
X131816000Y-101345000D02*
X132852000Y-101345000D01*
X130363000Y-102225000D02*
X131294000Y-102225000D01*
X133374000Y-101745000D02*
X133777000Y-101745000D01*
X133374000Y-101705000D02*
X133717000Y-101705000D01*
X133374000Y-101785000D02*
X133834000Y-101785000D01*
X130549000Y-102025000D02*
X131294000Y-102025000D01*
X133374000Y-101865000D02*
X133939000Y-101865000D01*
X133374000Y-103185000D02*
X134814000Y-103185000D01*
X130891000Y-101745000D02*
X131294000Y-101745000D01*
X129755000Y-103826000D02*
X134913000Y-103826000D01*
X133374000Y-101665000D02*
X133653000Y-101665000D01*
X133374000Y-102105000D02*
X134198000Y-102105000D01*
X130834000Y-101785000D02*
X131294000Y-101785000D01*
X130134000Y-102545000D02*
X131294000Y-102545000D01*
X133374000Y-103226000D02*
X134825000Y-103226000D01*
X133374000Y-102825000D02*
X134682000Y-102825000D01*
X130269000Y-102345000D02*
X131294000Y-102345000D01*
X130239000Y-102385000D02*
X131294000Y-102385000D01*
X131323000Y-101505000D02*
X133345000Y-101505000D01*
X133374000Y-102265000D02*
X134338000Y-102265000D01*
X130066000Y-102665000D02*
X131294000Y-102665000D01*
X130159000Y-102505000D02*
X131294000Y-102505000D01*
X129814000Y-103346000D02*
X131294000Y-103346000D01*
X130508000Y-102065000D02*
X131294000Y-102065000D01*
X130780000Y-101825000D02*
X131294000Y-101825000D01*
X131015000Y-101665000D02*
X131294000Y-101665000D01*
X133374000Y-101625000D02*
X133585000Y-101625000D01*
X129833000Y-103266000D02*
X131294000Y-103266000D01*
X133374000Y-102785000D02*
X134663000Y-102785000D01*
X129806000Y-103386000D02*
X131294000Y-103386000D01*
X130044000Y-102705000D02*
X131294000Y-102705000D01*
X133374000Y-102665000D02*
X134602000Y-102665000D01*
X133374000Y-102865000D02*
X134699000Y-102865000D01*
X130433000Y-102145000D02*
X131294000Y-102145000D01*
X130024000Y-102745000D02*
X131294000Y-102745000D01*
X133374000Y-103666000D02*
X134903000Y-103666000D01*
X134954000Y-103906000D02*
G75*
G03*
X134954000Y-103906000I-2620000J0D01*
G01*
%TO.C,C2*%
X127914113Y-134555000D02*
X127914113Y-133140000D01*
X127194113Y-131060000D02*
X127194113Y-130005000D01*
X126714113Y-131060000D02*
X126714113Y-130447000D01*
X127154113Y-131060000D02*
X127154113Y-130035000D01*
X127434113Y-134347000D02*
X127434113Y-133140000D01*
X126754113Y-131060000D02*
X126754113Y-130401000D01*
X127034113Y-134071000D02*
X127034113Y-133140000D01*
X126274113Y-133015000D02*
X126274113Y-131185000D01*
X126834113Y-131060000D02*
X126834113Y-130315000D01*
X126834113Y-133885000D02*
X126834113Y-133140000D01*
X127754113Y-131060000D02*
X127754113Y-129702000D01*
X128715113Y-134680000D02*
X128715113Y-129520000D01*
X128355113Y-134656000D02*
X128355113Y-133140000D01*
X127634113Y-131060000D02*
X127634113Y-129752000D01*
X127554113Y-131060000D02*
X127554113Y-129790000D01*
X128275113Y-131060000D02*
X128275113Y-129557000D01*
X131519888Y-133575000D02*
X131019888Y-133575000D01*
X126994113Y-134037000D02*
X126994113Y-133140000D01*
X127394113Y-134324000D02*
X127394113Y-133140000D01*
X127394113Y-131060000D02*
X127394113Y-129876000D01*
X127794113Y-131060000D02*
X127794113Y-129686000D01*
X126634113Y-131060000D02*
X126634113Y-130546000D01*
X128075113Y-134601000D02*
X128075113Y-133140000D01*
X127874113Y-131060000D02*
X127874113Y-129658000D01*
X128155113Y-131060000D02*
X128155113Y-129580000D01*
X126994113Y-131060000D02*
X126994113Y-130163000D01*
X127074113Y-131060000D02*
X127074113Y-130096000D01*
X127514113Y-131060000D02*
X127514113Y-129810000D01*
X126154113Y-132618000D02*
X126154113Y-131582000D01*
X127074113Y-134104000D02*
X127074113Y-133140000D01*
X127154113Y-134165000D02*
X127154113Y-133140000D01*
X127874113Y-134542000D02*
X127874113Y-133140000D01*
X127914113Y-131060000D02*
X127914113Y-129645000D01*
X126714113Y-133753000D02*
X126714113Y-133140000D01*
X128555113Y-134676000D02*
X128555113Y-129524000D01*
X127754113Y-134498000D02*
X127754113Y-133140000D01*
X126954113Y-134001000D02*
X126954113Y-133140000D01*
X127794113Y-134514000D02*
X127794113Y-133140000D01*
X127034113Y-131060000D02*
X127034113Y-130129000D01*
X128355113Y-131060000D02*
X128355113Y-129544000D01*
X127234113Y-131060000D02*
X127234113Y-129978000D01*
X127314113Y-131060000D02*
X127314113Y-129925000D01*
X128155113Y-134620000D02*
X128155113Y-133140000D01*
X126514113Y-133483000D02*
X126514113Y-133140000D01*
X126874113Y-133926000D02*
X126874113Y-133140000D01*
X127474113Y-134368000D02*
X127474113Y-133140000D01*
X127354113Y-134300000D02*
X127354113Y-133140000D01*
X126794113Y-131060000D02*
X126794113Y-130357000D01*
X127194113Y-134195000D02*
X127194113Y-133140000D01*
X127514113Y-134390000D02*
X127514113Y-133140000D01*
X128395113Y-134661000D02*
X128395113Y-133140000D01*
X127594113Y-131060000D02*
X127594113Y-129771000D01*
X126594113Y-133600000D02*
X126594113Y-133140000D01*
X131269888Y-133825000D02*
X131269888Y-133325000D01*
X127274113Y-131060000D02*
X127274113Y-129951000D01*
X127714113Y-131060000D02*
X127714113Y-129718000D01*
X127674113Y-131060000D02*
X127674113Y-129735000D01*
X128115113Y-131060000D02*
X128115113Y-129589000D01*
X126794113Y-133843000D02*
X126794113Y-133140000D01*
X128315113Y-131060000D02*
X128315113Y-129550000D01*
X127954113Y-131060000D02*
X127954113Y-129632000D01*
X127274113Y-134249000D02*
X127274113Y-133140000D01*
X128435113Y-134665000D02*
X128435113Y-133140000D01*
X128515113Y-134673000D02*
X128515113Y-129527000D01*
X126914113Y-133964000D02*
X126914113Y-133140000D01*
X127114113Y-134135000D02*
X127114113Y-133140000D01*
X126634113Y-133654000D02*
X126634113Y-133140000D01*
X126434113Y-133351000D02*
X126434113Y-133140000D01*
X128035113Y-131060000D02*
X128035113Y-129609000D01*
X127834113Y-134528000D02*
X127834113Y-133140000D01*
X127634113Y-134448000D02*
X127634113Y-133140000D01*
X128595113Y-134678000D02*
X128595113Y-129522000D01*
X126914113Y-131060000D02*
X126914113Y-130236000D01*
X128475113Y-131060000D02*
X128475113Y-129531000D01*
X127474113Y-131060000D02*
X127474113Y-129832000D01*
X126554113Y-131060000D02*
X126554113Y-130657000D01*
X126474113Y-131060000D02*
X126474113Y-130781000D01*
X127994113Y-134580000D02*
X127994113Y-133140000D01*
X127354113Y-131060000D02*
X127354113Y-129900000D01*
X126514113Y-131060000D02*
X126514113Y-130717000D01*
X128115113Y-134611000D02*
X128115113Y-133140000D01*
X127594113Y-134429000D02*
X127594113Y-133140000D01*
X126674113Y-131060000D02*
X126674113Y-130495000D01*
X127954113Y-134568000D02*
X127954113Y-133140000D01*
X128035113Y-134591000D02*
X128035113Y-133140000D01*
X127554113Y-134410000D02*
X127554113Y-133140000D01*
X127114113Y-131060000D02*
X127114113Y-130065000D01*
X126874113Y-131060000D02*
X126874113Y-130274000D01*
X128075113Y-131060000D02*
X128075113Y-129599000D01*
X126594113Y-131060000D02*
X126594113Y-130600000D01*
X128235113Y-134636000D02*
X128235113Y-133140000D01*
X126954113Y-131060000D02*
X126954113Y-130199000D01*
X126674113Y-133705000D02*
X126674113Y-133140000D01*
X126754113Y-133799000D02*
X126754113Y-133140000D01*
X128635113Y-134679000D02*
X128635113Y-129521000D01*
X128195113Y-134628000D02*
X128195113Y-133140000D01*
X126354113Y-133198000D02*
X126354113Y-131002000D01*
X128275113Y-134643000D02*
X128275113Y-133140000D01*
X127714113Y-134482000D02*
X127714113Y-133140000D01*
X127834113Y-131060000D02*
X127834113Y-129672000D01*
X126234113Y-132905000D02*
X126234113Y-131295000D01*
X128435113Y-131060000D02*
X128435113Y-129535000D01*
X126474113Y-133419000D02*
X126474113Y-133140000D01*
X127994113Y-131060000D02*
X127994113Y-129620000D01*
X127234113Y-134222000D02*
X127234113Y-133140000D01*
X127434113Y-131060000D02*
X127434113Y-129853000D01*
X128195113Y-131060000D02*
X128195113Y-129572000D01*
X128395113Y-131060000D02*
X128395113Y-129539000D01*
X128235113Y-131060000D02*
X128235113Y-129564000D01*
X126394113Y-133278000D02*
X126394113Y-130922000D01*
X127314113Y-134275000D02*
X127314113Y-133140000D01*
X127674113Y-134465000D02*
X127674113Y-133140000D01*
X126434113Y-131060000D02*
X126434113Y-130849000D01*
X126194113Y-132777000D02*
X126194113Y-131423000D01*
X126314113Y-133111000D02*
X126314113Y-131089000D01*
X128475113Y-134669000D02*
X128475113Y-133140000D01*
X128675113Y-134680000D02*
X128675113Y-129520000D01*
X128315113Y-134650000D02*
X128315113Y-133140000D01*
X126554113Y-133543000D02*
X126554113Y-133140000D01*
X126114113Y-132384000D02*
X126114113Y-131816000D01*
X131335113Y-132100000D02*
G75*
G03*
X131335113Y-132100000I-2620000J0D01*
G01*
%TO.C,JP5*%
X131826000Y-110684000D02*
X129226000Y-110684000D01*
X131826000Y-113344000D02*
X129226000Y-113344000D01*
X134426000Y-110684000D02*
X134426000Y-112014000D01*
X133096000Y-110684000D02*
X134426000Y-110684000D01*
X131826000Y-110684000D02*
X131826000Y-113344000D01*
X129226000Y-110684000D02*
X129226000Y-113344000D01*
%TO.C,JP1*%
X128330000Y-92695000D02*
X125670000Y-92695000D01*
X128330000Y-92695000D02*
X128330000Y-87555000D01*
X128330000Y-87555000D02*
X125670000Y-87555000D01*
X128330000Y-95295000D02*
X127000000Y-95295000D01*
X125670000Y-92695000D02*
X125670000Y-87555000D01*
X128330000Y-93965000D02*
X128330000Y-95295000D01*
%TO.C,JP6*%
X130810000Y-121472000D02*
X129480000Y-121472000D01*
X132080000Y-121472000D02*
X132080000Y-118812000D01*
X132080000Y-121472000D02*
X134680000Y-121472000D01*
X134680000Y-121472000D02*
X134680000Y-118812000D01*
X129480000Y-121472000D02*
X129480000Y-120142000D01*
X132080000Y-118812000D02*
X134680000Y-118812000D01*
%TO.C,JP3*%
X128330000Y-77470000D02*
X128330000Y-72330000D01*
X128330000Y-77470000D02*
X125670000Y-77470000D01*
X125670000Y-77470000D02*
X125670000Y-72330000D01*
X128330000Y-78740000D02*
X128330000Y-80070000D01*
X128330000Y-72330000D02*
X125670000Y-72330000D01*
X128330000Y-80070000D02*
X127000000Y-80070000D01*
%TO.C,JP2*%
X134080000Y-74930000D02*
X134080000Y-80070000D01*
X131420000Y-74930000D02*
X134080000Y-74930000D01*
X131420000Y-72330000D02*
X132750000Y-72330000D01*
X131420000Y-80070000D02*
X134080000Y-80070000D01*
X131420000Y-74930000D02*
X131420000Y-80070000D01*
X131420000Y-73660000D02*
X131420000Y-72330000D01*
%TO.C,J7*%
X123721325Y-79000000D02*
X124154338Y-78750000D01*
X124154338Y-78750000D02*
X124154338Y-79250000D01*
X124154338Y-79250000D02*
X123721325Y-79000000D01*
X123260000Y-69055000D02*
X123260000Y-100025000D01*
X112780000Y-69055000D02*
X123260000Y-69055000D01*
X123260000Y-100025000D02*
X112780000Y-100025000D01*
%TO.C,C4*%
X121024113Y-134425000D02*
X121024113Y-133010000D01*
X121345113Y-134506000D02*
X121345113Y-133010000D01*
X119344113Y-132775000D02*
X119344113Y-131165000D01*
X119464113Y-133068000D02*
X119464113Y-130872000D01*
X121465113Y-134526000D02*
X121465113Y-133010000D01*
X119664113Y-133413000D02*
X119664113Y-133010000D01*
X120064113Y-130930000D02*
X120064113Y-130069000D01*
X120304113Y-134065000D02*
X120304113Y-133010000D01*
X119784113Y-130930000D02*
X119784113Y-130365000D01*
X121345113Y-130930000D02*
X121345113Y-129434000D01*
X120584113Y-130930000D02*
X120584113Y-129702000D01*
X121545113Y-130930000D02*
X121545113Y-129405000D01*
X120784113Y-134335000D02*
X120784113Y-133010000D01*
X120944113Y-130930000D02*
X120944113Y-129542000D01*
X119304113Y-132647000D02*
X119304113Y-131293000D01*
X120824113Y-130930000D02*
X120824113Y-129588000D01*
X121185113Y-134471000D02*
X121185113Y-133010000D01*
X120144113Y-130930000D02*
X120144113Y-129999000D01*
X120224113Y-130930000D02*
X120224113Y-129935000D01*
X120784113Y-130930000D02*
X120784113Y-129605000D01*
X121465113Y-130930000D02*
X121465113Y-129414000D01*
X120984113Y-134412000D02*
X120984113Y-133010000D01*
X120504113Y-130930000D02*
X120504113Y-129746000D01*
X119784113Y-133575000D02*
X119784113Y-133010000D01*
X119264113Y-132488000D02*
X119264113Y-131452000D01*
X119744113Y-133524000D02*
X119744113Y-133010000D01*
X120544113Y-130930000D02*
X120544113Y-129723000D01*
X120424113Y-130930000D02*
X120424113Y-129795000D01*
X121425113Y-130930000D02*
X121425113Y-129420000D01*
X120664113Y-134280000D02*
X120664113Y-133010000D01*
X121145113Y-130930000D02*
X121145113Y-129479000D01*
X120064113Y-133871000D02*
X120064113Y-133010000D01*
X121785113Y-134550000D02*
X121785113Y-129390000D01*
X119424113Y-132981000D02*
X119424113Y-130959000D01*
X121705113Y-134548000D02*
X121705113Y-129392000D01*
X121104113Y-134450000D02*
X121104113Y-133010000D01*
X119224113Y-132254000D02*
X119224113Y-131686000D01*
X121505113Y-130930000D02*
X121505113Y-129409000D01*
X119704113Y-130930000D02*
X119704113Y-130470000D01*
X120504113Y-134194000D02*
X120504113Y-133010000D01*
X119544113Y-130930000D02*
X119544113Y-130719000D01*
X120544113Y-134217000D02*
X120544113Y-133010000D01*
X119864113Y-133669000D02*
X119864113Y-133010000D01*
X119704113Y-133470000D02*
X119704113Y-133010000D01*
X120624113Y-130930000D02*
X120624113Y-129680000D01*
X120104113Y-133907000D02*
X120104113Y-133010000D01*
X119824113Y-133623000D02*
X119824113Y-133010000D01*
X119624113Y-133353000D02*
X119624113Y-133010000D01*
X120384113Y-134119000D02*
X120384113Y-133010000D01*
X120624113Y-134260000D02*
X120624113Y-133010000D01*
X121024113Y-130930000D02*
X121024113Y-129515000D01*
X120704113Y-134299000D02*
X120704113Y-133010000D01*
X120464113Y-130930000D02*
X120464113Y-129770000D01*
X120984113Y-130930000D02*
X120984113Y-129528000D01*
X119904113Y-130930000D02*
X119904113Y-130227000D01*
X121265113Y-134490000D02*
X121265113Y-133010000D01*
X119944113Y-133755000D02*
X119944113Y-133010000D01*
X119984113Y-133796000D02*
X119984113Y-133010000D01*
X121265113Y-130930000D02*
X121265113Y-129450000D01*
X119584113Y-130930000D02*
X119584113Y-130651000D01*
X120384113Y-130930000D02*
X120384113Y-129821000D01*
X120104113Y-130930000D02*
X120104113Y-130033000D01*
X119504113Y-133148000D02*
X119504113Y-130792000D01*
X121185113Y-130930000D02*
X121185113Y-129469000D01*
X121425113Y-134520000D02*
X121425113Y-133010000D01*
X120704113Y-130930000D02*
X120704113Y-129641000D01*
X119624113Y-130930000D02*
X119624113Y-130587000D01*
X120864113Y-130930000D02*
X120864113Y-129572000D01*
X121545113Y-134535000D02*
X121545113Y-133010000D01*
X120264113Y-134035000D02*
X120264113Y-133010000D01*
X119584113Y-133289000D02*
X119584113Y-133010000D01*
X121145113Y-134461000D02*
X121145113Y-133010000D01*
X120184113Y-130930000D02*
X120184113Y-129966000D01*
X120864113Y-134368000D02*
X120864113Y-133010000D01*
X121064113Y-134438000D02*
X121064113Y-133010000D01*
X121305113Y-134498000D02*
X121305113Y-133010000D01*
X120264113Y-130930000D02*
X120264113Y-129905000D01*
X120424113Y-134145000D02*
X120424113Y-133010000D01*
X121665113Y-134546000D02*
X121665113Y-129394000D01*
X119384113Y-132885000D02*
X119384113Y-131055000D01*
X119824113Y-130930000D02*
X119824113Y-130317000D01*
X120344113Y-134092000D02*
X120344113Y-133010000D01*
X121585113Y-134539000D02*
X121585113Y-133010000D01*
X120744113Y-130930000D02*
X120744113Y-129622000D01*
X121585113Y-130930000D02*
X121585113Y-129401000D01*
X121305113Y-130930000D02*
X121305113Y-129442000D01*
X120944113Y-134398000D02*
X120944113Y-133010000D01*
X121745113Y-134549000D02*
X121745113Y-129391000D01*
X124379888Y-133695000D02*
X124379888Y-133195000D01*
X121385113Y-130930000D02*
X121385113Y-129427000D01*
X120464113Y-134170000D02*
X120464113Y-133010000D01*
X120344113Y-130930000D02*
X120344113Y-129848000D01*
X120904113Y-130930000D02*
X120904113Y-129556000D01*
X120024113Y-130930000D02*
X120024113Y-130106000D01*
X119904113Y-133713000D02*
X119904113Y-133010000D01*
X120184113Y-133974000D02*
X120184113Y-133010000D01*
X120584113Y-134238000D02*
X120584113Y-133010000D01*
X120224113Y-134005000D02*
X120224113Y-133010000D01*
X119664113Y-130930000D02*
X119664113Y-130527000D01*
X120904113Y-134384000D02*
X120904113Y-133010000D01*
X119864113Y-130930000D02*
X119864113Y-130271000D01*
X120024113Y-133834000D02*
X120024113Y-133010000D01*
X121505113Y-134531000D02*
X121505113Y-133010000D01*
X121385113Y-134513000D02*
X121385113Y-133010000D01*
X119944113Y-130930000D02*
X119944113Y-130185000D01*
X121225113Y-134481000D02*
X121225113Y-133010000D01*
X121625113Y-134543000D02*
X121625113Y-129397000D01*
X121225113Y-130930000D02*
X121225113Y-129459000D01*
X119984113Y-130930000D02*
X119984113Y-130144000D01*
X119544113Y-133221000D02*
X119544113Y-133010000D01*
X121064113Y-130930000D02*
X121064113Y-129502000D01*
X120304113Y-130930000D02*
X120304113Y-129875000D01*
X120744113Y-134318000D02*
X120744113Y-133010000D01*
X120144113Y-133941000D02*
X120144113Y-133010000D01*
X124629888Y-133445000D02*
X124129888Y-133445000D01*
X121104113Y-130930000D02*
X121104113Y-129490000D01*
X120664113Y-130930000D02*
X120664113Y-129660000D01*
X121825113Y-134550000D02*
X121825113Y-129390000D01*
X120824113Y-134352000D02*
X120824113Y-133010000D01*
X119744113Y-130930000D02*
X119744113Y-130416000D01*
X124445113Y-131970000D02*
G75*
G03*
X124445113Y-131970000I-2620000J0D01*
G01*
%TO.C,C5*%
X116816000Y-106669000D02*
X116251000Y-106669000D01*
X120357000Y-105268000D02*
X118896000Y-105268000D01*
X116816000Y-105429000D02*
X115401000Y-105429000D01*
X116816000Y-105148000D02*
X115328000Y-105148000D01*
X119757000Y-106389000D02*
X118896000Y-106389000D01*
X116816000Y-104908000D02*
X115291000Y-104908000D01*
X119034000Y-106949000D02*
X116678000Y-106949000D01*
X116816000Y-105949000D02*
X115632000Y-105949000D01*
X119891000Y-106229000D02*
X118896000Y-106229000D01*
X116816000Y-106269000D02*
X115852000Y-106269000D01*
X116816000Y-105308000D02*
X115365000Y-105308000D01*
X119827000Y-106309000D02*
X118896000Y-106309000D01*
X118533000Y-107149000D02*
X117179000Y-107149000D01*
X119599000Y-106549000D02*
X118896000Y-106549000D01*
X116816000Y-106789000D02*
X116413000Y-106789000D01*
X116816000Y-106509000D02*
X116071000Y-106509000D01*
X116816000Y-106189000D02*
X115791000Y-106189000D01*
X120080000Y-105949000D02*
X118896000Y-105949000D01*
X116816000Y-105549000D02*
X115442000Y-105549000D01*
X120436000Y-104628000D02*
X115276000Y-104628000D01*
X120284000Y-105509000D02*
X118896000Y-105509000D01*
X116816000Y-106109000D02*
X115734000Y-106109000D01*
X119860000Y-106269000D02*
X118896000Y-106269000D01*
X116816000Y-106069000D02*
X115707000Y-106069000D01*
X116816000Y-105349000D02*
X115376000Y-105349000D01*
X119682000Y-106469000D02*
X118896000Y-106469000D01*
X116816000Y-105469000D02*
X115414000Y-105469000D01*
X120412000Y-104988000D02*
X118896000Y-104988000D01*
X120005000Y-106069000D02*
X118896000Y-106069000D01*
X116816000Y-105188000D02*
X115336000Y-105188000D01*
X120399000Y-105068000D02*
X118896000Y-105068000D01*
X120185000Y-105749000D02*
X118896000Y-105749000D01*
X116816000Y-105749000D02*
X115527000Y-105749000D01*
X119239000Y-106829000D02*
X118896000Y-106829000D01*
X120270000Y-105549000D02*
X118896000Y-105549000D01*
X120166000Y-105789000D02*
X118896000Y-105789000D01*
X119509000Y-106629000D02*
X118896000Y-106629000D01*
X119921000Y-106189000D02*
X118896000Y-106189000D01*
X119720000Y-106429000D02*
X118896000Y-106429000D01*
X119581000Y-102073225D02*
X119081000Y-102073225D01*
X116816000Y-105709000D02*
X115508000Y-105709000D01*
X118140000Y-107229000D02*
X117572000Y-107229000D01*
X116816000Y-105589000D02*
X115458000Y-105589000D01*
X120435000Y-104708000D02*
X115277000Y-104708000D01*
X120434000Y-104748000D02*
X115278000Y-104748000D01*
X119641000Y-106509000D02*
X118896000Y-106509000D01*
X119978000Y-106109000D02*
X118896000Y-106109000D01*
X116816000Y-106709000D02*
X116302000Y-106709000D01*
X119107000Y-106909000D02*
X118896000Y-106909000D01*
X116816000Y-106549000D02*
X116113000Y-106549000D01*
X119793000Y-106349000D02*
X118896000Y-106349000D01*
X116816000Y-106629000D02*
X116203000Y-106629000D01*
X119555000Y-106589000D02*
X118896000Y-106589000D01*
X119461000Y-106669000D02*
X118896000Y-106669000D01*
X120432000Y-104788000D02*
X115280000Y-104788000D01*
X120417000Y-104948000D02*
X118896000Y-104948000D01*
X116816000Y-105829000D02*
X115566000Y-105829000D01*
X120103000Y-105909000D02*
X118896000Y-105909000D01*
X116816000Y-105509000D02*
X115428000Y-105509000D01*
X120421000Y-104908000D02*
X118896000Y-104908000D01*
X120392000Y-105108000D02*
X118896000Y-105108000D01*
X116816000Y-105389000D02*
X115388000Y-105389000D01*
X118867000Y-107029000D02*
X116845000Y-107029000D01*
X116816000Y-106349000D02*
X115919000Y-106349000D01*
X116816000Y-106029000D02*
X115681000Y-106029000D01*
X116816000Y-105669000D02*
X115491000Y-105669000D01*
X120221000Y-105669000D02*
X118896000Y-105669000D01*
X116816000Y-105989000D02*
X115656000Y-105989000D01*
X116816000Y-106429000D02*
X115992000Y-106429000D01*
X116816000Y-106869000D02*
X116537000Y-106869000D01*
X120254000Y-105589000D02*
X118896000Y-105589000D01*
X120384000Y-105148000D02*
X118896000Y-105148000D01*
X119410000Y-106709000D02*
X118896000Y-106709000D01*
X119356000Y-106749000D02*
X118896000Y-106749000D01*
X120376000Y-105188000D02*
X118896000Y-105188000D01*
X120124000Y-105869000D02*
X118896000Y-105869000D01*
X120425000Y-104868000D02*
X118896000Y-104868000D01*
X120146000Y-105829000D02*
X118896000Y-105829000D01*
X120311000Y-105429000D02*
X118896000Y-105429000D01*
X116816000Y-106589000D02*
X116157000Y-106589000D01*
X120238000Y-105629000D02*
X118896000Y-105629000D01*
X120347000Y-105308000D02*
X118896000Y-105308000D01*
X120204000Y-105709000D02*
X118896000Y-105709000D01*
X118771000Y-107069000D02*
X116941000Y-107069000D01*
X120056000Y-105989000D02*
X118896000Y-105989000D01*
X116816000Y-104868000D02*
X115287000Y-104868000D01*
X116816000Y-104948000D02*
X115295000Y-104948000D01*
X116816000Y-105228000D02*
X115345000Y-105228000D01*
X116816000Y-105028000D02*
X115306000Y-105028000D01*
X120429000Y-104828000D02*
X115283000Y-104828000D01*
X116816000Y-106229000D02*
X115821000Y-106229000D01*
X116816000Y-106909000D02*
X116605000Y-106909000D01*
X120324000Y-105389000D02*
X118896000Y-105389000D01*
X119951000Y-106149000D02*
X118896000Y-106149000D01*
X119331000Y-101823225D02*
X119331000Y-102323225D01*
X116816000Y-106149000D02*
X115761000Y-106149000D01*
X120367000Y-105228000D02*
X118896000Y-105228000D01*
X116816000Y-106829000D02*
X116473000Y-106829000D01*
X116816000Y-104988000D02*
X115300000Y-104988000D01*
X119175000Y-106869000D02*
X118896000Y-106869000D01*
X116816000Y-106309000D02*
X115885000Y-106309000D01*
X116816000Y-105909000D02*
X115609000Y-105909000D01*
X118954000Y-106989000D02*
X116758000Y-106989000D01*
X119299000Y-106789000D02*
X118896000Y-106789000D01*
X120298000Y-105469000D02*
X118896000Y-105469000D01*
X116816000Y-105108000D02*
X115320000Y-105108000D01*
X116816000Y-106749000D02*
X116356000Y-106749000D01*
X118374000Y-107189000D02*
X117338000Y-107189000D01*
X116816000Y-106469000D02*
X116030000Y-106469000D01*
X116816000Y-105629000D02*
X115474000Y-105629000D01*
X116816000Y-105869000D02*
X115588000Y-105869000D01*
X116816000Y-105789000D02*
X115546000Y-105789000D01*
X116816000Y-106389000D02*
X115955000Y-106389000D01*
X116816000Y-105268000D02*
X115355000Y-105268000D01*
X118661000Y-107109000D02*
X117051000Y-107109000D01*
X120336000Y-105349000D02*
X118896000Y-105349000D01*
X120406000Y-105028000D02*
X118896000Y-105028000D01*
X116816000Y-105068000D02*
X115313000Y-105068000D01*
X120436000Y-104668000D02*
X115276000Y-104668000D01*
X120031000Y-106029000D02*
X118896000Y-106029000D01*
X120476000Y-104628000D02*
G75*
G03*
X120476000Y-104628000I-2620000J0D01*
G01*
%TO.C,U1*%
X119270000Y-107890000D02*
X119270000Y-128330000D01*
X124570000Y-107890000D02*
X122920000Y-107890000D01*
X119270000Y-128330000D02*
X124570000Y-128330000D01*
X116780000Y-128390000D02*
X127060000Y-128390000D01*
X127060000Y-107830000D02*
X116780000Y-107830000D01*
X127060000Y-128390000D02*
X127060000Y-107830000D01*
X116780000Y-107830000D02*
X116780000Y-128390000D01*
X124570000Y-128330000D02*
X124570000Y-107890000D01*
X120920000Y-107890000D02*
X119270000Y-107890000D01*
X120920000Y-107890000D02*
G75*
G03*
X122920000Y-107890000I1000000J0D01*
G01*
%TD*%
M02*
