M48
; DRILL file {KiCad (6.0.2)} date Wed Oct  5 14:19:41 2022
; FORMAT={-:-/ absolute / inch / decimal}
; #@! TF.CreationDate,2022-10-05T14:19:41-05:00
; #@! TF.GenerationSoftware,Kicad,Pcbnew,(6.0.2)
; #@! TF.FileFunction,Plated,1,2,PTH
FMAT,2
INCH
; #@! TA.AperFunction,Plated,PTH,ComponentDrill
T1C0.0300
; #@! TA.AperFunction,Plated,PTH,ComponentDrill
T2C0.0315
; #@! TA.AperFunction,Plated,PTH,ComponentDrill
T3C0.0394
; #@! TA.AperFunction,Plated,PTH,ComponentDrill
T4C0.0433
; #@! TA.AperFunction,Plated,PTH,ComponentDrill
T5C0.0591
; #@! TA.AperFunction,Plated,PTH,ComponentDrill
T6C0.1200
; #@! TA.AperFunction,Plated,PTH,ComponentDrill
T7C0.1260
%
G90
G05
T1
X5.43Y-2.99
X5.43Y-3.09
X5.43Y-3.19
X5.43Y-3.29
X5.43Y-3.39
X5.43Y-3.49
X5.43Y-3.59
X5.43Y-3.69
X5.43Y-3.79
X5.43Y-3.89
X5.43Y-3.99
X5.43Y-4.09
X5.43Y-4.19
X5.43Y-4.29
X5.43Y-4.39
X5.43Y-4.49
X5.43Y-4.59
X5.43Y-4.69
X5.43Y-4.79
X5.43Y-4.89
X6.03Y-2.99
X6.03Y-3.09
X6.03Y-3.19
X6.03Y-3.29
X6.03Y-3.39
X6.03Y-3.49
X6.03Y-3.59
X6.03Y-3.69
X6.03Y-3.79
X6.03Y-3.89
X6.03Y-3.99
X6.03Y-4.09
X6.03Y-4.19
X6.03Y-4.29
X6.03Y-4.39
X6.03Y-4.49
X6.03Y-4.59
X6.03Y-4.69
X6.03Y-4.79
X6.03Y-4.89
T2
X4.64Y-4.07
X4.64Y-4.1684
X4.65Y-4.3
X4.65Y-4.4
X4.65Y-4.5
X4.65Y-4.6
X4.65Y-4.7
X4.65Y-4.8
X4.65Y-4.9
X4.65Y-5.0
X4.7471Y-5.1957
X4.8455Y-5.1957
X4.94Y-4.0516
X4.94Y-4.15
X4.95Y-4.3
X4.95Y-4.4
X4.95Y-4.5
X4.95Y-4.6
X4.95Y-4.7
X4.95Y-4.8
X4.95Y-4.9
X4.95Y-5.0
X5.0183Y-5.2008
X5.1167Y-5.2008
X5.21Y-4.0416
X5.21Y-4.14
X6.2216Y-4.87
X6.27Y-3.53
X6.32Y-4.87
X6.33Y-3.66
X6.33Y-3.96
X6.47Y-3.66
X6.47Y-3.96
X6.47Y-4.79
X6.47Y-4.92
X6.5236Y-4.2283
X6.5236Y-4.4961
X6.57Y-3.53
X6.6339Y-4.2283
X6.6339Y-4.311
X6.6339Y-4.4134
X6.6339Y-4.4961
X6.6929Y-2.7559
X6.6929Y-2.8543
X6.77Y-4.79
X6.77Y-4.92
X6.9094Y-2.7559
X6.9094Y-2.8543
X6.9094Y-4.8031
X6.9094Y-4.9016
T3
X4.6323Y-3.1648
X4.6323Y-3.2738
X4.6323Y-3.3829
X4.6323Y-3.4919
X4.7441Y-3.1102
X4.7441Y-3.2193
X4.7441Y-3.3283
X4.7441Y-3.4374
X4.7441Y-3.5465
X5.0Y-2.9
X5.0Y-3.0
X5.0Y-3.1
X5.0Y-3.4994
X5.0Y-3.5994
X5.0Y-3.6994
X5.14Y-4.41
X5.15Y-4.73
X5.2264Y-2.9
X5.2264Y-3.0
X5.2264Y-3.1
X5.2264Y-3.5
X5.2264Y-3.6
X5.2264Y-3.7
X5.24Y-4.41
X5.25Y-4.73
X6.28Y-4.1433
X6.28Y-4.2433
X6.28Y-4.3433
X6.28Y-4.4433
X6.28Y-4.5433
X6.28Y-4.6433
X6.6732Y-3.7795
X6.8701Y-3.7795
T4
X6.2008Y-3.1299
X6.2008Y-3.2299
X6.2008Y-3.3299
T6
X4.5276Y-2.5197
X4.5276Y-5.1969
X6.9291Y-2.5197
X6.9291Y-5.1969
T7
X4.7323Y-2.8362
X4.7323Y-3.8205
T3
G00X6.2126Y-2.6772
M15
G01X6.2126Y-2.7559
M16
G05
G00X6.437Y-2.5984
M15
G01X6.3583Y-2.5984
M16
G05
G00X6.437Y-2.8346
M15
G01X6.3583Y-2.8346
M16
G05
G00X6.7165Y-4.0925
M15
G01X6.7756Y-4.0925
M16
G05
G00X6.7165Y-4.6319
M15
G01X6.7756Y-4.6319
M16
G05
G00X6.7776Y-4.4016
M15
G01X6.7776Y-4.3228
M16
G05
T5
G00X5.6307Y-2.6057
M15
G01X5.6701Y-2.6057
M16
G05
G00X5.6504Y-2.7829
M15
G01X5.6504Y-2.8222
M16
G05
T0
M30
