%TF.GenerationSoftware,KiCad,Pcbnew,(6.0.2)*%
%TF.CreationDate,2022-10-05T14:19:39-05:00*%
%TF.ProjectId,OneChipTerminal,4f6e6543-6869-4705-9465-726d696e616c,rev?*%
%TF.SameCoordinates,Original*%
%TF.FileFunction,Legend,Bot*%
%TF.FilePolarity,Positive*%
%FSLAX46Y46*%
G04 Gerber Fmt 4.6, Leading zero omitted, Abs format (unit mm)*
G04 Created by KiCad (PCBNEW (6.0.2)) date 2022-10-05 14:19:39*
%MOMM*%
%LPD*%
G01*
G04 APERTURE LIST*
%ADD10C,0.150000*%
G04 APERTURE END LIST*
D10*
X114347619Y-89557142D02*
X115347619Y-89557142D01*
X115347619Y-89319047D01*
X115300000Y-89176190D01*
X115204761Y-89080952D01*
X115109523Y-89033333D01*
X114919047Y-88985714D01*
X114776190Y-88985714D01*
X114585714Y-89033333D01*
X114490476Y-89080952D01*
X114395238Y-89176190D01*
X114347619Y-89319047D01*
X114347619Y-89557142D01*
X114871428Y-88223809D02*
X114823809Y-88080952D01*
X114776190Y-88033333D01*
X114680952Y-87985714D01*
X114538095Y-87985714D01*
X114442857Y-88033333D01*
X114395238Y-88080952D01*
X114347619Y-88176190D01*
X114347619Y-88557142D01*
X115347619Y-88557142D01*
X115347619Y-88223809D01*
X115300000Y-88128571D01*
X115252380Y-88080952D01*
X115157142Y-88033333D01*
X115061904Y-88033333D01*
X114966666Y-88080952D01*
X114919047Y-88128571D01*
X114871428Y-88223809D01*
X114871428Y-88557142D01*
X114347619Y-87509523D02*
X114347619Y-87319047D01*
X114395238Y-87223809D01*
X114442857Y-87176190D01*
X114585714Y-87080952D01*
X114776190Y-87033333D01*
X115157142Y-87033333D01*
X115252380Y-87080952D01*
X115300000Y-87128571D01*
X115347619Y-87223809D01*
X115347619Y-87414285D01*
X115300000Y-87509523D01*
X115252380Y-87557142D01*
X115157142Y-87604761D01*
X114919047Y-87604761D01*
X114823809Y-87557142D01*
X114776190Y-87509523D01*
X114728571Y-87414285D01*
X114728571Y-87223809D01*
X114776190Y-87128571D01*
X114823809Y-87080952D01*
X114919047Y-87033333D01*
X114871428Y-85509523D02*
X114871428Y-85842857D01*
X114347619Y-85842857D02*
X115347619Y-85842857D01*
X115347619Y-85366666D01*
X114871428Y-84985714D02*
X114871428Y-84652380D01*
X114347619Y-84509523D02*
X114347619Y-84985714D01*
X115347619Y-84985714D01*
X115347619Y-84509523D01*
X114347619Y-84080952D02*
X115347619Y-84080952D01*
X114633333Y-83747619D01*
X115347619Y-83414285D01*
X114347619Y-83414285D01*
X114633333Y-82985714D02*
X114633333Y-82509523D01*
X114347619Y-83080952D02*
X115347619Y-82747619D01*
X114347619Y-82414285D01*
X114347619Y-81604761D02*
X114347619Y-82080952D01*
X115347619Y-82080952D01*
X114871428Y-81271428D02*
X114871428Y-80938095D01*
X114347619Y-80795238D02*
X114347619Y-81271428D01*
X115347619Y-81271428D01*
X115347619Y-80795238D01*
M02*
